<svg width="252" height="85" viewBox="0 0 252 85" fill="none" xmlns="http://www.w3.org/2000/svg">
<g clip-path="url(#clip0_104_696)">
<path d="M54.3882 84.5946L54.3514 33.7543L27.2079 6.60474L0 30.6177L0.435818 73.9539L10.7236 75.7279L10.7082 49.189L44.4411 55.9626L44.4196 82.8206L54.3882 84.5946ZM10.6161 40.4604V31.167L24.9367 18.0588L44.3981 37.4496L44.4503 45.9388L10.6161 40.4604Z" fill="#AE0000"/>
<path d="M90.4689 27.5271L84.2509 28.7179L73.6807 17.9913L54.8731 21.3121L65.6979 32.4347L57.4419 33.828L27.3828 4.28759L21.8829 9.02327L20.8118 7.72809L26.5173 2.77757L35.5651 2.1484L49.4376 15.8981L68.8929 12.9732L56.5918 0.521753L63.3163 0L90.4689 27.5271Z" fill="#868686"/>
<path d="M90.4782 65.7932C90.4782 69.4209 87.9124 72.7969 84.5793 74.175C84.3829 74.2578 83.7046 74.5832 83.1644 74.8256L56.7238 84.92V74.5678L80.083 67.4444C80.8378 67.2735 81.5143 66.8561 82.0055 66.2581C82.4968 65.6602 82.775 64.9156 82.7961 64.142V59.7776V55.1279C82.8147 54.8183 82.7598 54.5087 82.6359 54.2244C82.5119 53.94 82.3226 53.689 82.0832 53.4918C81.8438 53.2946 81.5611 53.1568 81.2583 53.0896C80.9555 53.0225 80.6411 53.0279 80.3408 53.1053L63.703 57.2303C59.839 58.016 56.6992 55.4195 56.6962 51.4327V43.413C56.6962 39.6042 59.6794 35.9059 63.3685 35.157L90.4536 29.6326V36.799L66.6678 41.4887C66.0809 41.6328 65.5575 41.9654 65.1778 42.4355C64.798 42.9056 64.5829 43.4872 64.5654 44.0913V46.7676C64.5491 47.0513 64.5999 47.3349 64.7135 47.5954C64.8271 47.8558 65.0004 48.0859 65.2194 48.267C65.4385 48.4481 65.6971 48.5751 65.9743 48.6377C66.2515 48.7003 66.5395 48.6968 66.8151 48.6275L83.2933 45.4417C87.2464 44.6407 90.4506 47.2832 90.4567 51.3713L90.4782 65.7932Z" fill="#AE0000"/>
<path d="M108.202 35.2643V37.6367C106.647 36.8183 105.215 36.4091 103.906 36.4091C102.721 36.417 101.566 36.7751 100.585 37.4381C99.6036 38.1012 98.8404 39.0396 98.3913 40.1354C97.9422 41.2312 97.8271 42.4353 98.0607 43.5963C98.2943 44.7572 98.866 45.8232 99.704 46.66C100.288 47.2276 100.979 47.6721 101.738 47.9674C102.497 48.2626 103.307 48.4025 104.12 48.3787C105.407 48.3787 106.768 47.948 108.202 47.0866V49.4867C106.907 50.2225 105.441 50.6047 103.952 50.5946C102.881 50.6098 101.818 50.403 100.831 49.9873C99.8435 49.5716 98.9531 48.956 98.2155 48.1792C97.4436 47.4197 96.8344 46.511 96.4249 45.5085C96.0155 44.506 95.8143 43.4306 95.8338 42.3478C95.8172 41.2837 96.016 40.2271 96.4185 39.2418C96.8209 38.2565 97.4186 37.3629 98.1756 36.6147C98.8995 35.8484 99.7747 35.2407 100.746 34.8302C101.717 34.4197 102.763 34.2153 103.817 34.23C105.335 34.2602 106.83 34.6128 108.202 35.2643Z" fill="#AE0000"/>
<path d="M109.949 42.3204C109.933 41.2605 110.135 40.2087 110.54 39.2293C110.945 38.2498 111.546 37.3634 112.306 36.6241C113.038 35.8613 113.918 35.2571 114.894 34.8489C115.869 34.4408 116.917 34.2375 117.974 34.2517C119.018 34.242 120.051 34.4496 121.01 34.8612C121.968 35.2729 122.831 35.8795 123.542 36.6425C124.293 37.3835 124.886 38.2682 125.288 39.2437C125.689 40.2192 125.89 41.2656 125.877 42.3204C125.902 43.4052 125.711 44.4841 125.315 45.4942C124.919 46.5043 124.325 47.4255 123.57 48.204C122.838 48.9653 121.96 49.5707 120.989 49.9836C120.017 50.3966 118.972 50.6086 117.917 50.6069C116.861 50.6052 115.817 50.3898 114.847 49.9736C113.877 49.5575 113.001 48.9492 112.272 48.1856C111.515 47.4113 110.919 46.4939 110.52 45.4868C110.121 44.4798 109.927 43.4034 109.949 42.3204ZM123.781 42.4186C123.8 41.6252 123.657 40.8362 123.361 40.1C123.064 39.3638 122.62 38.6959 122.056 38.1372C121.508 37.5713 120.848 37.1247 120.119 36.8253C119.389 36.5259 118.606 36.3801 117.818 36.397C117.049 36.3884 116.286 36.5416 115.58 36.8467C114.873 37.1517 114.239 37.6019 113.718 38.1679C113.166 38.7262 112.731 39.3888 112.438 40.117C112.145 40.8452 112 41.6245 112.011 42.4094C111.996 43.2012 112.144 43.9876 112.445 44.7199C112.747 45.4522 113.195 46.1147 113.764 46.6663C114.324 47.2324 114.995 47.6784 115.733 47.9771C116.472 48.2757 117.264 48.4208 118.06 48.4035C118.819 48.4091 119.571 48.2539 120.265 47.9481C120.96 47.6424 121.582 47.193 122.09 46.6295C122.637 46.073 123.069 45.4134 123.359 44.689C123.649 43.9646 123.793 43.1898 123.781 42.4094V42.4186Z" fill="#AE0000"/>
<path d="M128.339 34.1226L139.017 45.7853V34.7364H140.99V50.8033L130.309 39.1836V50.0821H128.339V34.1226Z" fill="#AE0000"/>
<path d="M152.76 36.4459L151.161 37.8055C150.82 37.4152 150.435 37.066 150.013 36.7651C149.561 36.5083 149.044 36.3889 148.525 36.4214C147.909 36.3926 147.301 36.572 146.8 36.9308C146.591 37.0805 146.422 37.2784 146.307 37.5077C146.191 37.737 146.133 37.9908 146.137 38.2475C146.14 38.4818 146.193 38.7126 146.293 38.9245C146.393 39.1363 146.538 39.3241 146.717 39.4751C147.311 39.9609 147.974 40.356 148.684 40.6476C149.441 40.9758 150.168 41.3713 150.854 41.8292C151.338 42.1647 151.767 42.5737 152.125 43.0415C152.448 43.4627 152.699 43.9346 152.868 44.4379C153.031 44.9392 153.113 45.4636 153.11 45.9909C153.121 46.595 153.011 47.1952 152.787 47.7561C152.562 48.317 152.228 48.8272 151.803 49.2565C151.397 49.6896 150.906 50.0332 150.36 50.2652C149.814 50.4972 149.225 50.6126 148.632 50.6038C147.476 50.6221 146.348 50.2513 145.428 49.5511C144.505 48.8452 143.789 47.7905 143.28 46.3868L145.253 45.7945C145.971 47.5214 147.071 48.3859 148.552 48.3879C148.882 48.3975 149.21 48.3417 149.517 48.2237C149.825 48.1057 150.106 47.9278 150.345 47.7004C150.578 47.4788 150.763 47.2103 150.885 46.9125C151.008 46.6148 151.066 46.2944 151.057 45.9725C151.05 45.5267 150.92 45.0913 150.682 44.7142C150.45 44.3089 150.136 43.9559 149.762 43.6768C149.206 43.3039 148.614 42.9892 147.994 42.7376C147.344 42.469 146.719 42.1456 146.125 41.7709C145.695 41.4819 145.313 41.1278 144.992 40.7212C144.698 40.3569 144.461 39.9489 144.292 39.512C144.04 38.8036 144.003 38.0364 144.185 37.3069C144.368 36.5773 144.761 35.918 145.317 35.4116C146.135 34.6409 147.223 34.223 148.347 34.2484C149.173 34.2574 149.988 34.4426 150.738 34.7916C151.548 35.1515 152.247 35.7229 152.76 36.4459Z" fill="#AE0000"/>
<path d="M154.663 34.7366H163.496V36.8328H160.05V50.0823H158.088V36.8236H154.651L154.663 34.7366Z" fill="#AE0000"/>
<path d="M166.025 34.7366H169.152C170.711 34.7366 171.98 35.1458 172.958 35.9642C173.428 36.3446 173.805 36.8276 174.059 37.3761C174.313 37.9246 174.438 38.5241 174.425 39.1285C174.439 40.1197 174.102 41.0839 173.474 41.8508C172.841 42.6386 171.854 43.1931 170.512 43.5143L174.708 50.0823H172.446L168.437 43.766H167.995V50.0823H166.025V34.7366ZM167.995 36.5934V41.9429C170.909 42.0063 172.365 41.1112 172.363 39.2574C172.387 38.6805 172.205 38.1138 171.85 37.6584C171.499 37.2385 171.023 36.9426 170.49 36.8144C169.671 36.6371 168.833 36.5577 167.995 36.5781V36.5934Z" fill="#AE0000"/>
<path d="M177.258 34.7581H179.232V44.1957C179.232 45.5921 179.538 46.6755 180.18 47.4367C180.821 48.1978 181.714 48.5814 182.859 48.5814C184.004 48.5814 184.903 48.2316 185.542 47.5287C186.18 46.8259 186.499 45.8346 186.499 44.5578V34.7581H188.473V44.4136C188.473 46.2919 187.968 47.7937 186.96 48.9191C185.951 50.0444 184.607 50.6071 182.927 50.6071C181.212 50.6071 179.839 50.0372 178.808 48.8976C177.777 47.7579 177.265 46.074 177.273 43.8458L177.258 34.7581Z" fill="#AE0000"/>
<path d="M203.03 35.2645V37.6369C201.475 36.8185 200.042 36.4093 198.733 36.4093C197.549 36.4172 196.393 36.7753 195.412 37.4383C194.431 38.1014 193.668 39.0398 193.218 40.1356C192.769 41.2314 192.654 42.4355 192.888 43.5965C193.121 44.7574 193.693 45.8234 194.531 46.6602C195.115 47.2278 195.806 47.6723 196.565 47.9676C197.324 48.2628 198.134 48.4027 198.948 48.3789C200.235 48.3789 201.595 47.9482 203.03 47.0868V49.4869C201.734 50.2227 200.268 50.6049 198.779 50.5948C197.708 50.61 196.645 50.4032 195.658 49.9875C194.671 49.5718 193.78 48.9562 193.043 48.1794C192.271 47.4199 191.661 46.5112 191.252 45.5087C190.843 44.5062 190.641 43.4308 190.661 42.3481C190.644 41.2839 190.843 40.2273 191.246 39.242C191.648 38.2568 192.246 37.3631 193.003 36.6149C193.726 35.8489 194.601 35.2415 195.572 34.831C196.542 34.4205 197.587 34.2159 198.641 34.2302C200.16 34.2606 201.656 34.6131 203.03 35.2645Z" fill="#AE0000"/>
<path d="M204.494 34.7366H213.333V36.8328H209.877V50.0823H207.928V36.8236H204.494V34.7366Z" fill="#AE0000"/>
<path d="M215.512 34.7366H217.464V50.0823H215.512V34.7366Z" fill="#AE0000"/>
<path d="M220.036 42.3202C220.021 41.2603 220.222 40.2085 220.627 39.2291C221.032 38.2496 221.633 37.3632 222.393 36.6239C223.125 35.8607 224.006 35.2563 224.982 34.8481C225.958 34.44 227.007 34.2369 228.065 34.2515C229.108 34.2418 230.141 34.4494 231.1 34.861C232.058 35.2727 232.921 35.8793 233.632 36.6423C234.383 37.3833 234.977 38.268 235.378 39.2435C235.779 40.219 235.98 41.2654 235.968 42.3202C235.993 43.405 235.801 44.4839 235.405 45.494C235.009 46.5041 234.415 47.4253 233.66 48.2038C232.928 48.9651 232.051 49.5705 231.079 49.9834C230.108 50.3964 229.063 50.6084 228.007 50.6067C226.951 50.605 225.907 50.3896 224.937 49.9734C223.967 49.5573 223.091 48.949 222.362 48.1853C221.604 47.4114 221.008 46.494 220.608 45.487C220.209 44.48 220.014 43.4034 220.036 42.3202ZM233.868 42.4184C233.887 41.625 233.744 40.836 233.448 40.0998C233.151 39.3636 232.707 38.6957 232.143 38.137C231.595 37.5711 230.935 37.1245 230.206 36.8251C229.476 36.5256 228.693 36.3799 227.905 36.3968C227.136 36.3882 226.373 36.5414 225.667 36.8465C224.96 37.1515 224.326 37.6017 223.805 38.1677C223.253 38.726 222.818 39.3886 222.525 40.1168C222.232 40.845 222.087 41.6243 222.098 42.4092C222.083 43.201 222.231 43.9874 222.532 44.7197C222.834 45.452 223.283 46.1145 223.851 46.6661C224.411 47.2322 225.082 47.6782 225.82 47.9769C226.559 48.2755 227.351 48.4206 228.147 48.4033C228.906 48.4089 229.658 48.2537 230.352 47.9479C231.047 47.6422 231.669 47.1928 232.177 46.6293C232.724 46.0728 233.156 45.4132 233.446 44.6888C233.736 43.9644 233.88 43.1896 233.868 42.4092V42.4184Z" fill="#AE0000"/>
<path d="M238.426 34.1226L249.104 45.7853V34.7364H251.083V50.8033L240.403 39.1836V50.0821H238.432L238.426 34.1226Z" fill="#AE0000"/>
</g>
<defs>
<clipPath id="clip0_104_696">
<rect width="251.08" height="84.92" fill="white"/>
</clipPath>
</defs>
</svg>
