<svg width="52" height="51" viewBox="0 0 52 51" fill="none" xmlns="http://www.w3.org/2000/svg">
<g clip-path="url(#clip0_33_262)">
<path d="M26 0C11.6398 0 0 11.4176 0 25.5C0 39.584 11.6398 51 26 51C40.3602 51 52 39.584 52 25.5C52 11.4176 40.36 0 26 0ZM26 46.2187C14.3326 46.2187 4.87508 36.9431 4.87508 25.5C4.87508 14.0569 14.3326 4.78133 26 4.78133C37.6674 4.78133 47.1249 14.0569 47.1249 25.5C47.1249 36.9431 37.6674 46.2187 26 46.2187ZM31.4908 32.1284H25.6668C28.5137 28.8374 33.093 25.0409 33.093 20.765C33.093 16.8587 30.082 14.3677 25.9642 14.3677C21.8448 14.3677 17.9935 17.5728 17.9935 21.4488C17.9935 22.6488 18.8304 23.6927 20.4376 23.6927C23.6535 23.6927 21.9115 18.6118 25.7628 18.6118C27.136 18.6118 28.1743 19.7179 28.1743 20.9802C28.1743 22.0863 27.6039 23.0409 27.0011 23.841C24.4563 27.223 21.442 29.9913 18.6632 33.0369C18.3285 33.4051 17.8913 33.9598 17.8913 34.6052C17.8913 36.0204 19.0304 36.6341 20.5027 36.6341H31.6875C32.9598 36.6341 34.099 35.8197 34.099 34.406C34.099 32.9922 32.9631 32.1284 31.4908 32.1284Z" fill="#AE0000"/>
</g>
<defs>
<clipPath id="clip0_33_262">
<rect width="52" height="51" fill="white"/>
</clipPath>
</defs>
</svg>
