<svg width="97" height="96" viewBox="0 0 97 96" fill="none" xmlns="http://www.w3.org/2000/svg">
<path d="M22.0086 58.0145L18.6669 70.4893L6.45336 70.7476C2.80329 63.9776 0.73291 56.2318 0.73291 48.0005C0.73291 40.041 2.66866 32.535 6.09992 25.9258H6.10254L16.9761 27.9193L21.7393 38.7275C20.7424 41.634 20.199 44.754 20.199 48.0005C20.1994 51.524 20.8376 54.9 22.0086 58.0145Z" fill="white"/>
<path d="M95.8941 39.0332C96.4453 41.9368 96.7327 44.9355 96.7327 48.0002C96.7327 51.4367 96.3714 54.7888 95.6831 58.0223C93.3465 69.0253 87.2409 78.6332 78.783 85.4323L78.7804 85.4297L65.0847 84.7309L63.1463 72.6306C68.7585 69.3392 73.1445 64.1884 75.4549 58.0223H49.7881V39.0332H75.8293H95.8941Z" fill="white"/>
<path d="M78.7806 85.429L78.7832 85.4316C70.5574 92.0434 60.1081 95.9995 48.7332 95.9995C30.4536 95.9995 14.5609 85.7824 6.45361 70.7468L22.0088 58.0137C26.0624 68.832 36.4984 76.5332 48.7332 76.5332C53.992 76.5332 58.9187 75.1116 63.1463 72.6299L78.7806 85.429Z" fill="white"/>
<path d="M79.3713 11.0505L63.8214 23.781C59.4461 21.0461 54.2741 19.4662 48.7331 19.4662C36.2214 19.4662 25.5902 27.5207 21.7397 38.727L6.10272 25.9252H6.1001C14.0887 10.5231 30.1818 0 48.7331 0C60.3797 0 71.0583 4.14862 79.3713 11.0505Z" fill="white"/>
</svg>
