<svg width="28" height="28" viewBox="0 0 28 28" fill="none" xmlns="http://www.w3.org/2000/svg">
<path d="M19.9119 0H7.39052C3.31532 0 0 3.32395 0 7.40975V19.9639C0 24.0495 3.31532 27.3735 7.39052 27.3735H19.9121C23.9871 27.3735 27.3024 24.0495 27.3024 19.9639V7.40975C27.3024 3.32395 23.9871 0 19.9119 0V0ZM13.6512 21.1715C9.53477 21.1715 6.18592 17.8139 6.18592 13.6867C6.18592 9.55958 9.53477 6.20201 13.6512 6.20201C17.7677 6.20201 21.1165 9.55958 21.1165 13.6867C21.1165 17.8139 17.7677 21.1715 13.6512 21.1715ZM21.295 7.96716C20.0786 7.96716 19.0891 6.97515 19.0891 5.75551C19.0891 4.53586 20.0786 3.54365 21.295 3.54365C22.5115 3.54365 23.5011 4.53586 23.5011 5.75551C23.5011 6.97515 22.5115 7.96716 21.295 7.96716Z" fill="white"/>
<path d="M13.6511 7.80664C10.4174 7.80664 7.78638 10.4443 7.78638 13.6866C7.78638 16.9287 10.4174 19.5666 13.6511 19.5666C16.885 19.5666 19.5158 16.9287 19.5158 13.6866C19.5158 10.4443 16.885 7.80664 13.6511 7.80664Z" fill="white"/>
<path d="M21.2948 5.14844C20.9611 5.14844 20.6895 5.42077 20.6895 5.75534C20.6895 6.08992 20.9611 6.36225 21.2948 6.36225C21.6287 6.36225 21.9003 6.09012 21.9003 5.75534C21.9003 5.42056 21.6287 5.14844 21.2948 5.14844Z" fill="white"/>
</svg>
