<svg width="30" height="40" viewBox="0 0 30 40" fill="none" xmlns="http://www.w3.org/2000/svg">
<path d="M14.9082 0C6.83801 0 0.272461 6.4986 0.272461 14.4864C0.272461 24.3996 13.37 38.9526 13.9277 39.5673C14.4514 40.1447 15.3659 40.1437 15.8888 39.5673C16.4464 38.9526 29.5439 24.3996 29.5439 14.4864C29.5438 6.4986 22.9783 0 14.9082 0ZM14.9082 21.7749C10.8479 21.7749 7.54467 18.5053 7.54467 14.4864C7.54467 10.4675 10.848 7.19798 14.9082 7.19798C18.9684 7.19798 22.2717 10.4676 22.2717 14.4865C22.2717 18.5054 18.9684 21.7749 14.9082 21.7749Z" fill="#102234"/>
</svg>
