<svg width="39" height="39" viewBox="0 0 39 39" fill="none" xmlns="http://www.w3.org/2000/svg">
<g clip-path="url(#clip0_31_534)">
<path d="M16.1502 22.85C12.4277 19.1275 11.5872 15.405 11.3976 13.9136C11.3446 13.5012 11.4865 13.0877 11.7815 12.7947L14.7939 9.78366C15.237 9.3408 15.3157 8.65062 14.9835 8.11943L10.1872 0.671777C9.81975 0.0835826 9.06525 -0.128703 8.44499 0.181588L0.74518 3.80791C0.243599 4.0549 -0.0514241 4.58782 0.00552489 5.144C0.408973 8.97676 2.07992 18.3986 11.3391 27.6584C20.5982 36.9182 30.0187 38.5885 33.8535 38.992C34.4097 39.0489 34.9426 38.7539 35.1896 38.2523L38.8159 30.5525C39.125 29.9336 38.9142 29.1811 38.3284 28.813L30.8807 24.018C30.3499 23.6855 29.6597 23.7636 29.2165 24.2063L26.2055 27.2187C25.9125 27.5137 25.4989 27.6556 25.0866 27.6026C23.5951 27.413 19.8727 26.5725 16.1502 22.85Z" fill="#102234"/>
<path d="M30.9309 20.8448C30.1882 20.8448 29.5861 20.2427 29.5861 19.5C29.5798 13.9321 25.0677 9.42007 19.4999 9.41378C18.7571 9.41378 18.155 8.81168 18.155 8.06895C18.155 7.32622 18.7571 6.72412 19.4999 6.72412C26.5525 6.7319 32.2679 12.4473 32.2757 19.5C32.2757 20.2427 31.6736 20.8448 30.9309 20.8448Z" fill="#102234"/>
<path d="M37.655 20.8448C36.9123 20.8448 36.3102 20.2427 36.3102 19.5C36.2998 10.2202 28.7797 2.70003 19.4999 2.68966C18.7571 2.68966 18.155 2.08756 18.155 1.34483C18.155 0.6021 18.7571 0 19.4999 0C30.2645 0.0118586 38.988 8.73537 38.9999 19.5C38.9999 19.8567 38.8582 20.1987 38.606 20.4509C38.3538 20.7031 38.0117 20.8448 37.655 20.8448Z" fill="#102234"/>
</g>
<defs>
<clipPath id="clip0_31_534">
<rect width="39" height="39" fill="white"/>
</clipPath>
</defs>
</svg>
