<svg width="150" height="150" viewBox="0 0 150 150" fill="none" xmlns="http://www.w3.org/2000/svg">
<g clip-path="url(#clip0_301_1880)">
<path d="M61.6285 132.975L61.1879 135.127L61.6125 132.973C60.4223 132.738 59.2665 133.513 59.0319 134.703C58.7973 135.894 59.572 137.049 60.7634 137.284C60.7668 137.285 60.8 137.29 60.8034 137.292C60.943 137.318 61.0815 137.332 61.2188 137.332C62.2522 137.332 63.1735 136.599 63.3738 135.546C63.6026 134.354 62.821 133.203 61.6285 132.975Z" fill="#AE0000"/>
<path d="M78.4285 133.681L78.6471 135.867L78.4216 133.682C77.2143 133.806 76.3365 134.885 76.4613 136.092C76.5769 137.223 77.5313 138.065 78.6437 138.065C78.7192 138.065 78.7959 138.061 78.8714 138.054L78.9321 138.047C80.1337 137.906 80.9863 136.823 80.8524 135.621C80.7173 134.42 79.6301 133.555 78.4285 133.681Z" fill="#AE0000"/>
<path d="M70.0172 133.958C70.0172 133.958 69.9863 133.956 69.9851 133.956C68.7743 133.901 67.7627 134.842 67.7077 136.054C67.654 137.266 68.6061 138.293 69.818 138.348C69.8524 138.35 69.8856 138.35 69.9199 138.35C71.0872 138.35 72.0599 137.431 72.1126 136.252C72.1675 135.04 71.2302 134.012 70.0172 133.958Z" fill="#AE0000"/>
<path d="M53.5124 130.742L53.485 130.732C52.3429 130.322 51.0977 130.919 50.688 132.062C50.2772 133.204 50.8837 134.467 52.0259 134.878C52.2719 134.966 52.5225 135.007 52.7686 135.007C53.6692 135.007 54.5149 134.45 54.8365 133.553C55.2474 132.411 54.6546 131.152 53.5124 130.742Z" fill="#AE0000"/>
<path d="M86.721 132.142L87.2623 134.272L86.7141 132.144C85.5388 132.446 84.8316 133.644 85.1337 134.82C85.3889 135.811 86.2816 136.47 87.26 136.47C87.442 136.47 87.6262 136.447 87.8105 136.399C87.8196 136.397 87.8585 136.386 87.8688 136.384C89.035 136.066 89.7171 134.868 89.4058 133.699C89.0945 132.532 87.8917 131.837 86.721 132.142Z" fill="#AE0000"/>
<path d="M94.6643 129.372L95.5352 131.389L94.6575 129.375C93.5451 129.86 93.0359 131.154 93.5199 132.267C93.8804 133.094 94.6884 133.587 95.5364 133.587C95.8282 133.587 96.1269 133.528 96.4119 133.404C96.421 133.4 96.4565 133.385 96.4656 133.38C97.5677 132.882 98.0541 131.591 97.562 130.487C97.0699 129.381 95.7721 128.886 94.6643 129.372Z" fill="#AE0000"/>
<path d="M45.1195 29.2092C45.472 29.2092 45.8302 29.1245 46.1609 28.9482C47.2321 28.3772 47.636 27.0462 47.065 25.9751C46.4939 24.905 45.1641 24.4988 44.093 25.071L44.0666 25.0847C42.9966 25.6558 42.6041 26.9798 43.1751 28.051C43.5688 28.7903 44.3333 29.2092 45.1195 29.2092Z" fill="#AE0000"/>
<path d="M19.7033 53.7505C20.0295 53.921 20.3785 54.0023 20.723 54.0023C21.5138 54.0023 22.2782 53.5743 22.6708 52.8247L22.7097 52.748C23.2453 51.6585 22.7966 50.3413 21.7072 49.8069C20.6257 49.2736 19.3188 49.713 18.7763 50.7876C18.2156 51.8611 18.6299 53.1874 19.7033 53.7505Z" fill="#AE0000"/>
<path d="M16.6099 62.0161C16.8433 62.0951 17.0802 62.1329 17.3148 62.1329C18.2303 62.1329 19.0852 61.5549 19.3954 60.6394L19.424 60.5524C19.781 59.3931 19.1298 58.1629 17.9694 57.807C16.8193 57.4522 15.5982 58.0908 15.2308 59.2352C14.8452 60.3831 15.462 61.6282 16.6099 62.0161Z" fill="#AE0000"/>
<path d="M24.0382 46.0634C24.4284 46.3473 24.8805 46.4846 25.3291 46.4846C26.0077 46.4846 26.6783 46.1699 27.1075 45.5794L27.1361 45.5404C27.8411 44.554 27.611 43.1853 26.6269 42.4803C25.6415 41.7742 24.2682 42.0008 23.561 42.985L25.3314 44.2873L23.5541 42.9941C22.84 43.976 23.0574 45.3505 24.0382 46.0634Z" fill="#AE0000"/>
<path d="M37.6601 33.9544C38.1213 33.9544 38.586 33.8091 38.9831 33.5069C39.9627 32.7905 40.1744 31.4161 39.458 30.4365C38.7405 29.4569 37.366 29.2451 36.3875 29.9615L36.3326 30.0016C35.3667 30.7352 35.1745 32.1165 35.908 33.0835C36.3406 33.6534 36.9964 33.9544 37.6601 33.9544Z" fill="#AE0000"/>
<path d="M14.6483 95.3395C14.939 96.2836 15.8065 96.889 16.7449 96.889C16.9589 96.889 17.1775 96.857 17.3926 96.7906C18.5462 96.437 19.1974 95.2147 18.8518 94.0589C18.521 92.9053 17.3251 92.2278 16.1613 92.5448C14.9905 92.8641 14.3004 94.0726 14.6197 95.2433C14.6266 95.2662 14.6415 95.3166 14.6483 95.3395Z" fill="#AE0000"/>
<path d="M31.0225 39.7451C31.5936 39.7451 32.1646 39.5242 32.5961 39.0848C33.4532 38.2265 33.4532 36.8349 32.5961 35.9777C31.7378 35.1194 30.3462 35.1194 29.4879 35.9777L29.4512 36.0143C28.6021 36.8807 28.6192 38.27 29.4856 39.1191C29.9124 39.538 30.4675 39.7451 31.0225 39.7451Z" fill="#AE0000"/>
<path d="M17.0768 85.7598C16.9223 84.5662 15.8317 83.7193 14.637 83.8612C13.433 84.0054 12.5724 85.0983 12.7155 86.3034L12.7281 86.3915C12.8883 87.4833 13.8256 88.2661 14.8979 88.2661C15.0032 88.2661 15.1107 88.2581 15.2195 88.242C16.4154 88.0681 17.2451 86.9557 17.0768 85.7598Z" fill="#AE0000"/>
<path d="M14.3165 79.4671C14.3394 79.4671 14.3611 79.4682 14.3829 79.4682C15.5662 79.4682 16.5435 78.5264 16.5778 77.3351L16.5801 77.2412C16.5801 76.027 15.5959 75.0439 14.3829 75.0439C13.1778 75.0439 12.2005 76.0121 12.1856 77.2126C12.1536 78.4234 13.1068 79.4316 14.3165 79.4671Z" fill="#AE0000"/>
<path d="M14.7982 70.6545C14.9298 70.6774 15.0592 70.6888 15.1885 70.6888C16.2322 70.6888 17.158 69.9415 17.3491 68.8784C17.3548 68.8463 17.3594 68.8143 17.364 68.7823C17.5414 67.5818 16.7117 66.4648 15.5101 66.2886C14.3233 66.1123 13.2121 66.9283 13.021 68.1116C12.8127 69.3041 13.6069 70.4405 14.7982 70.6545Z" fill="#AE0000"/>
<path d="M118.447 46.7569C118.873 47.3749 119.557 47.7056 120.255 47.7056C120.685 47.7056 121.119 47.5798 121.499 47.3177C122.498 46.631 122.751 45.2623 122.065 44.2621L120.238 45.4844L122.058 44.2518C121.376 43.247 120.009 42.985 119.006 43.6659C118.001 44.3468 117.739 45.7132 118.42 46.718L118.447 46.7569Z" fill="#AE0000"/>
<path d="M129.668 68.8684C128.462 69.0034 127.594 70.0918 127.731 71.298L127.742 71.393C127.899 72.4882 128.84 73.279 129.915 73.279C130.018 73.279 130.124 73.2721 130.229 73.2572C131.42 73.0867 132.251 71.9892 132.097 70.799C131.958 69.5963 130.866 68.7334 129.668 68.8684Z" fill="#AE0000"/>
<path d="M125.96 62.6672L125.97 62.6958C126.251 63.6537 127.127 64.2739 128.076 64.2739C128.281 64.2739 128.49 64.2453 128.697 64.1835C129.862 63.8413 130.528 62.6203 130.186 61.4552L130.176 61.4266C129.834 60.2616 128.613 59.5956 127.448 59.9389C126.284 60.2811 125.618 61.5022 125.96 62.6672Z" fill="#AE0000"/>
<path d="M122.857 54.4521C123.24 55.2314 124.024 55.6857 124.839 55.6857C125.163 55.6857 125.492 55.6136 125.802 55.4603C126.891 54.9247 127.343 53.6155 126.806 52.526L124.815 53.4541L126.804 52.5214C126.289 51.4228 124.981 50.9502 123.882 51.4652C122.783 51.9801 122.31 53.2882 122.825 54.3868L122.857 54.4521Z" fill="#AE0000"/>
<path d="M112.913 39.8951C113.343 40.3346 113.912 40.5543 114.482 40.5543C115.037 40.5543 115.592 40.346 116.02 39.926C116.881 39.0838 116.9 37.707 116.07 36.8396C115.247 35.9527 113.86 35.8989 112.97 36.7206C112.079 37.5434 112.024 38.9338 112.846 39.8253L112.913 39.8951Z" fill="#AE0000"/>
<path d="M130.382 78.0427C129.175 78.0118 128.165 78.9583 128.122 80.1656C128.067 81.3684 128.991 82.3926 130.195 82.4602C130.237 82.4624 130.277 82.4636 130.319 82.4636C131.476 82.4636 132.446 81.5584 132.511 80.3876L132.514 80.2972C132.549 79.0853 131.594 78.0782 130.382 78.0427Z" fill="#AE0000"/>
<path d="M98.8619 29.1057L98.9145 29.1343C99.2418 29.3082 99.5931 29.3906 99.9387 29.3906C100.72 29.3906 101.477 28.9695 101.874 28.2314C102.446 27.1659 102.043 25.8338 100.981 25.257L99.9181 27.1796L100.974 25.2525C99.9101 24.6688 98.5746 25.0591 97.991 26.1234C97.4085 27.1865 97.7976 28.5232 98.8619 29.1057Z" fill="#AE0000"/>
<path d="M106.294 33.9252L106.328 33.9515C106.725 34.2525 107.191 34.3978 107.654 34.3978C108.318 34.3978 108.974 34.098 109.406 33.5281C110.14 32.561 109.95 31.1832 108.984 30.4496L108.969 30.4393C108.007 29.7 106.628 29.8808 105.889 30.8433C105.149 31.8057 105.331 33.1859 106.294 33.9252Z" fill="#AE0000"/>
<path d="M148.644 111.308L138.329 100.975C137.452 100.096 136.285 99.6117 135.044 99.6117C133.803 99.6117 132.636 100.096 131.759 100.975L131.52 101.214L130.843 100.536C130.006 99.6975 129.358 98.7213 128.919 97.6581C128.88 97.5174 128.828 97.3801 128.762 97.2507C128.426 96.3055 128.251 95.2995 128.251 94.2661V91.3433C128.451 91.4486 128.669 91.5253 128.904 91.5653C129.03 91.5871 129.155 91.5974 129.278 91.5974C130.321 91.5974 131.243 90.8535 131.437 89.7961C131.671 88.6082 130.901 87.4535 129.712 87.2154C129.189 87.1113 128.672 87.2017 128.237 87.4374C128.102 84.3155 126.826 81.3995 124.606 79.1748L114.599 69.1509C112.354 66.9022 109.368 65.6639 106.192 65.6639C103.734 65.6639 101.392 66.4089 99.4171 67.7879L98.3551 66.7202V41.589C98.3551 38.5597 97.2553 35.6369 95.2595 33.3607C93.8393 31.7425 93.0576 29.6642 93.0576 27.5082V25.6668H93.2087C95.7699 25.6668 97.8539 23.5828 97.8539 21.0205V6.40411C97.8539 3.84178 95.7699 1.75781 93.2087 1.75781H52.1645C49.6033 1.75781 47.5193 3.84178 47.5193 6.40411V21.0205C47.5193 23.5828 49.6033 25.6668 52.1645 25.6668H52.5032V26.6304C52.5032 28.9993 51.582 31.2263 49.91 32.9006L45.48 37.3386C43.1293 39.6938 41.835 42.8238 41.835 46.154V60.3298C41.835 62.2559 42.2974 64.0743 43.111 65.6856C40.1974 65.8539 37.4817 67.0681 35.4012 69.1509L25.3944 79.1748C23.0438 81.53 21.7495 84.6611 21.7495 87.9902V94.2661C21.7495 96.635 20.8294 98.8621 19.1574 100.536L18.4879 101.207C18.4845 101.209 18.4822 101.212 18.4799 101.214L18.2419 100.975C17.3641 100.096 16.198 99.6117 14.9563 99.6117C13.7157 99.6117 12.5484 100.096 11.6718 100.975L1.35612 111.308C-0.452042 113.119 -0.452042 116.067 1.35612 117.879L4.88892 121.416C5.74608 122.276 7.13768 122.277 7.99599 121.42C8.85429 120.561 8.85658 119.171 7.99828 118.311L4.46663 114.773C4.36707 114.673 4.36707 114.512 4.46663 114.412L14.7823 104.079C14.8785 103.983 15.0352 103.982 15.1314 104.079L16.9247 105.876H16.9258L41.4127 130.405L44.1559 133.154C44.2554 133.254 44.2554 133.415 44.1559 133.515L33.8413 143.848C33.744 143.945 33.5873 143.945 33.4911 143.848L14.2193 124.543C13.3621 123.683 11.9705 123.682 11.1122 124.539C10.2528 125.397 10.2516 126.788 11.1088 127.647L30.3818 146.952C31.2584 147.831 32.4257 148.315 33.6674 148.315C34.9079 148.315 36.0741 147.831 36.9518 146.952L47.2664 136.62C49.0746 134.809 49.0746 131.861 47.2664 130.049L47.1542 129.937L48.4554 128.634C49.9752 127.111 51.9939 126.195 54.1397 126.057C57.1598 125.861 60.0014 124.572 62.1403 122.429L71.616 112.933C74.3488 112.215 76.4763 109.989 77.0542 107.201C78.0281 107.665 79.1164 107.926 80.2654 107.926C84.3979 107.926 87.7602 104.56 87.7602 100.422V95.2045C88.7054 95.636 89.7549 95.8786 90.8604 95.8786C94.9928 95.8786 98.354 92.5129 98.354 88.3747V72.9504L105.113 79.7424C105.542 80.1739 106.106 80.389 106.67 80.389C107.231 80.389 107.792 80.1762 108.221 79.7493C109.081 78.8933 109.084 77.5028 108.228 76.6422L102.593 70.9797C103.683 70.3789 104.913 70.0584 106.192 70.0584C108.192 70.0584 110.074 70.8389 111.488 72.2568L121.495 82.2796C123.017 83.8051 123.856 85.833 123.856 87.9902V94.2661C123.856 97.8081 125.233 101.137 127.732 103.641L128.414 104.324L125.227 107.517L105.951 126.827L104.876 125.75C104.865 125.74 104.854 125.728 104.843 125.718L104.654 125.528C102.379 123.249 99.3565 121.88 96.1452 121.671C94.1917 121.544 92.3538 120.711 90.9634 119.32L83.7433 112.138C82.8827 111.282 81.4911 111.286 80.6351 112.146C79.7802 113.007 79.7836 114.399 80.6442 115.253L87.8597 122.429C89.9986 124.572 92.8402 125.861 95.8614 126.057C98.0061 126.195 100.025 127.111 101.545 128.633L101.651 128.739C101.708 128.804 101.769 128.865 101.833 128.922L102.846 129.936L102.734 130.049C100.925 131.861 100.925 134.808 102.734 136.62L113.048 146.952C113.926 147.831 115.092 148.315 116.334 148.315C117.574 148.315 118.742 147.831 119.619 146.952L148.644 117.878C150.452 116.066 150.452 113.119 148.644 111.308ZM129.723 89.4585L129.682 89.4516L129.282 89.3703L129.723 89.4585ZM59.0298 119.324C57.6462 120.711 55.8083 121.544 53.8559 121.671C50.6435 121.88 47.6212 123.249 45.3461 125.528L44.0495 126.827L42.8822 125.657C42.8673 125.642 42.8524 125.626 42.8375 125.613L21.5858 104.324L22.2679 103.641C24.7673 101.137 26.144 97.8081 26.144 94.2661V87.9902C26.144 85.833 26.9817 83.8051 28.5049 82.2796L38.5117 72.2568C39.9261 70.8389 41.8076 70.0584 43.808 70.0584C45.0909 70.0584 46.3245 70.3812 47.4186 70.9865L41.7744 76.6399C40.9172 77.4982 40.9184 78.8898 41.7767 79.747C42.2058 80.175 42.7677 80.389 43.3296 80.389C43.8927 80.389 44.4557 80.1739 44.8849 79.7447L51.6266 72.9904V100.422C51.6266 104.56 54.9889 107.926 59.1213 107.926C60.2863 107.926 61.3895 107.658 62.3737 107.182C62.8201 109.36 64.2117 111.195 66.0976 112.241L59.0298 119.324ZM93.9606 88.3758C93.9606 90.0902 92.569 91.4852 90.8604 91.4852C89.1506 91.4852 87.7602 90.0902 87.7602 88.3758V63.866C87.7602 62.653 86.7771 61.6688 85.5629 61.6688C84.3487 61.6688 83.3656 62.653 83.3656 63.866V100.423C83.3656 102.137 81.9752 103.531 80.2654 103.531C78.7308 103.531 77.457 102.407 77.211 100.937V63.8409C77.211 62.6266 76.228 61.6436 75.0137 61.6436C74.6235 61.6436 74.2561 61.7466 73.938 61.9251C73.2433 62.2948 72.7707 63.0249 72.7707 63.866V100.422C72.7707 100.701 72.7867 100.975 72.8165 101.246V105.674C72.8165 107.388 71.426 108.783 69.7163 108.783C68.0077 108.783 66.6172 107.388 66.6172 105.674V63.8145C66.6172 62.6015 65.633 61.6173 64.4199 61.6173C63.2057 61.6173 62.2215 62.6015 62.2215 63.8145V100.422C62.2215 102.136 60.8311 103.531 59.1225 103.531C57.4127 103.531 56.0223 102.136 56.0223 100.422V59.5493C56.0223 58.3351 55.0381 57.3509 53.825 57.3509C52.6108 57.3509 51.6277 58.3351 51.6277 59.5493V67.1093C51.4435 67.1688 51.265 67.2523 51.099 67.3622C48.2574 66.2945 46.2296 63.5456 46.2296 60.3298V46.154C46.2296 43.9968 47.0684 41.9689 48.5905 40.4434L53.0205 36.0054C55.521 33.5014 56.8977 30.1723 56.8977 26.6304V25.6668H61.3152C62.5294 25.6668 63.5124 24.6826 63.5124 23.4695C63.5124 22.2553 62.5294 21.2723 61.3152 21.2723H52.1645C52.026 21.2723 51.9138 21.159 51.9138 21.0205V6.40411C51.9138 6.26564 52.026 6.15234 52.1645 6.15234H93.2076C93.3472 6.15234 93.4593 6.26564 93.4593 6.40411V21.0205C93.4593 21.1601 93.3472 21.2723 93.2076 21.2723H71.6309C70.4178 21.2723 69.4336 22.2553 69.4336 23.4695C69.4336 24.6826 70.4178 25.6668 71.6309 25.6668H88.6631V27.5082C88.6631 30.7308 89.8315 33.8379 91.9544 36.2595C93.2476 37.7335 93.9606 39.6263 93.9606 41.589V88.3758ZM145.533 114.773L116.509 143.848C116.461 143.897 116.402 143.921 116.334 143.921C116.266 143.921 116.208 143.897 116.159 143.848L105.844 133.515C105.745 133.415 105.745 133.254 105.844 133.154L107.505 131.49L107.506 131.489L124.355 114.611L134.869 104.079C134.965 103.982 135.122 103.982 135.218 104.079L145.533 114.412C145.633 114.512 145.633 114.673 145.533 114.773Z" fill="#AE0000"/>
<path d="M59.1212 11.3691C57.8314 11.3691 56.782 12.4209 56.782 13.7129C56.782 15.0061 57.8314 16.0566 59.1212 16.0566C60.412 16.0566 61.4615 15.0061 61.4615 13.7129C61.4615 12.4209 60.412 11.3691 59.1212 11.3691Z" fill="#AE0000"/>
<path d="M135.762 111.529C134.471 111.529 133.422 112.581 133.422 113.873C133.422 115.165 134.471 116.217 135.762 116.217C137.052 116.217 138.101 115.165 138.101 113.873C138.101 112.581 137.052 111.529 135.762 111.529Z" fill="#AE0000"/>
<path d="M36.6165 133.946C36.6165 132.654 35.5671 131.603 34.2773 131.603C32.9864 131.603 31.937 132.654 31.937 133.946C31.937 135.238 32.9864 136.29 34.2773 136.29C35.5671 136.29 36.6165 135.238 36.6165 133.946Z" fill="#AE0000"/>
</g>
<defs>
<clipPath id="clip0_301_1880">
<rect width="150" height="150" fill="white"/>
</clipPath>
</defs>
</svg>
