<svg width="146" height="146" viewBox="0 0 146 146" fill="none" xmlns="http://www.w3.org/2000/svg">
<path d="M83.9687 109.201C85.4763 107.694 87.8326 107.55 89.5084 108.758L101.215 90.4709C102.512 88.4451 104.875 87.4397 107.233 87.9139C110.34 88.5364 112.347 91.4695 111.802 94.5911L109.994 104.951C109.808 106.015 110.212 107.037 111.076 107.686C111.939 108.335 113.034 108.439 114.004 107.965C122.266 103.925 128.252 96.484 130.428 87.5492L132.72 78.1404C134.007 72.857 140.782 70.5541 144.366 74.3569C145.553 75.6165 146.138 77.3266 145.972 79.0495C143.847 100.953 131.109 120.384 111.886 131.076C113.315 132.76 113.238 135.293 111.65 136.882L103.158 145.374C102.757 145.775 102.213 146 101.646 146C101.078 146 100.535 145.775 100.133 145.374L75.4773 120.718C74.6421 119.882 74.6421 118.528 75.4773 117.693L83.9687 109.201ZM141.714 78.6372C141.779 77.9608 141.454 77.5034 141.253 77.2912C140.62 76.6182 139.785 76.758 139.831 76.7563C138.399 76.8099 137.212 77.7728 136.876 79.1524L134.584 88.5612C132.107 98.7353 125.29 107.208 115.883 111.807C113.475 112.984 110.648 112.716 108.506 111.105C106.364 109.495 105.319 106.855 105.78 104.215L107.588 93.8554C107.731 93.0384 107.206 92.2708 106.393 92.1077C105.774 91.9845 105.157 92.2466 104.818 92.7772L92.6386 111.802L108.757 127.921C109.016 127.68 138.29 113.939 141.714 78.6372ZM101.644 140.836L108.625 133.839L86.9931 112.226L80.0136 119.206L101.644 140.836Z" fill="#AE0000"/>
<path d="M110.025 54.4121C108.844 54.4121 107.887 53.4549 107.887 52.2734C107.887 51.092 108.844 50.1348 110.025 50.1348H111.367C112.548 50.1348 113.505 51.092 113.505 52.2734C113.505 53.4549 112.548 54.4121 111.367 54.4121H110.025Z" fill="#AE0000"/>
<path d="M125.166 55.6918C124.189 55.0268 123.937 53.6962 124.602 52.7201C125.9 50.815 126.731 48.6624 127.053 46.4022H94.3392C95.3806 53.6874 101.662 59.3061 109.23 59.3061H112.161C114.552 59.3061 116.842 58.7578 118.968 57.6767C120.02 57.1409 121.309 57.5604 121.844 58.6132C122.379 59.666 121.96 60.9535 120.907 61.489C118.175 62.8789 115.233 63.5835 112.161 63.5835H109.23C98.5775 63.5835 89.9104 54.9164 89.9104 44.2635C89.9104 43.0821 90.8677 42.1248 92.0491 42.1248H96.3464L104.343 23.0165H81.2542V79.2483H86.703C90.4103 79.2483 93.4264 82.2641 93.4264 85.9715V91.7294C93.4264 92.9108 92.4691 93.868 91.2877 93.868H54.7106C53.5292 93.868 52.5719 92.9108 52.5719 91.7294V85.9715C52.5719 82.2641 55.5878 79.2483 59.2951 79.2483H64.7439V23.0165H41.6555L49.6514 42.1248H53.949C55.1304 42.1248 56.0876 43.0821 56.0876 44.2635C56.0876 54.9164 47.4206 63.5835 36.7677 63.5835H33.8365C23.1836 63.5835 14.5166 54.9164 14.5166 44.2635C14.5166 43.0821 15.4738 42.1248 16.6553 42.1248H20.9526L28.9487 23.0165H24.4768C23.2954 23.0165 22.3381 22.0592 22.3381 20.8778V18.2087C22.3381 15.4444 23.8024 13.0169 25.9956 11.6575L24.7118 10.3737C23.8766 9.53851 23.8766 8.1843 24.7121 7.34936C25.547 6.51442 26.9012 6.51413 27.7365 7.34964L30.8929 10.506H40.1571C41.3385 10.506 42.2957 11.4633 42.2957 12.6447C42.2957 13.8261 41.3385 14.7834 40.1571 14.7834H30.0408C28.1519 14.7834 26.6152 16.3201 26.6152 18.2087V18.7391H119.382V18.2087C119.382 16.3201 117.846 14.7834 115.957 14.7834H48.7083C47.5269 14.7834 46.5697 13.8261 46.5697 12.6447C46.5697 11.4633 47.5269 10.506 48.7083 10.506H62.6072V10.392C62.6075 4.66175 67.2689 0 72.9992 0C78.7291 0 83.3906 4.66175 83.3906 10.3917V10.5058H115.105L118.261 7.34936C119.097 6.51413 120.451 6.51384 121.286 7.34907C122.121 8.1843 122.121 9.53851 121.286 10.3734L120.002 11.6572C122.195 13.0163 123.66 15.4441 123.66 18.2084V20.8775C123.66 22.0589 122.702 23.0162 121.521 23.0162H117.049L125.045 42.1246H129.343C130.524 42.1246 131.481 43.0818 131.481 44.2632C131.481 48.1599 130.325 51.9169 128.137 55.1283C127.472 56.1047 126.141 56.3573 125.166 55.6918ZM79.1135 10.3917C79.1135 7.02028 76.3706 4.27736 72.9992 4.27736C69.6278 4.27736 66.8848 7.02028 66.8848 10.3917V10.5058H79.1135V10.3917ZM56.8493 85.9715V89.5907H89.149V85.9715C89.149 84.623 88.0518 83.5257 86.703 83.5257H59.2954C57.9466 83.5257 56.8493 84.623 56.8493 85.9715ZM33.8368 59.3061H36.768C44.3366 59.3061 50.6175 53.6874 51.6591 46.4022H18.9456C19.9873 53.6871 26.2682 59.3061 33.8368 59.3061ZM33.5859 23.0165L25.5898 42.1248H45.0147L37.0189 23.0165H33.5859ZM69.0215 23.0165V79.2483H76.9765V23.0165H69.0215ZM112.412 23.0165H108.979L100.983 42.1248H120.408L112.412 23.0165Z" fill="#AE0000"/>
<path d="M34.632 50.1348H35.9731C37.1545 50.1348 38.1118 51.092 38.1118 52.2734C38.1118 53.4549 37.1545 54.4121 35.9731 54.4121H34.632C33.4506 54.4121 32.4934 53.4549 32.4934 52.2734C32.4934 51.092 33.4509 50.1348 34.632 50.1348Z" fill="#AE0000"/>
<path d="M1.63261 74.356C5.20848 70.5637 11.9841 72.8228 13.279 78.1395L15.5702 87.5486C17.7466 96.4837 23.7331 103.925 31.995 107.964C32.9654 108.438 34.0601 108.335 34.9233 107.685C35.7867 107.037 36.1911 106.014 36.0055 104.95L34.1967 94.5905C33.6518 91.4689 35.659 88.5358 38.7663 87.913C41.1246 87.441 43.4866 88.4442 44.7834 90.4703L56.4903 108.757C58.1664 107.549 60.523 107.694 62.0303 109.201L70.522 117.692C71.3572 118.528 71.3572 119.882 70.522 120.717L45.8656 145.373C45.4479 145.791 44.9004 145.999 44.3531 145.999C43.8059 145.999 43.2584 145.791 42.8407 145.373L34.349 136.882C32.7609 135.293 32.6834 132.761 34.1117 131.076C31.3879 129.561 28.7291 127.825 26.2066 125.911C25.2656 125.197 25.0816 123.855 25.7957 122.914C26.5091 121.974 27.8505 121.789 28.7921 122.503C33.1288 125.793 36.7634 127.636 37.2419 127.92L53.3604 111.802L41.1811 92.7769C40.8417 92.2468 40.2232 91.9859 39.6067 92.1074C38.7932 92.2705 38.2679 93.0381 38.4108 93.8551L40.2195 104.215C40.6803 106.855 39.6355 109.495 37.4931 111.105C35.3507 112.715 32.524 112.984 30.1167 111.807C20.7093 107.208 13.8927 98.7347 11.4146 88.5609L9.12339 79.1518C8.37372 76.0727 4.03534 76.0636 4.28514 78.6365C5.69267 93.1485 12.1783 106.802 22.5475 117.081C23.3861 117.913 23.3921 119.267 22.5606 120.106C21.7291 120.944 20.3754 120.951 19.5362 120.119C8.45956 109.138 1.53137 94.5526 0.0280228 79.0492C-0.139648 77.3262 0.445496 75.6156 1.63261 74.356ZM44.3529 140.836L65.9832 119.206L58.9863 112.225L37.3736 133.857L44.3529 140.836Z" fill="#AE0000"/>
</svg>
