<svg width="122" height="134" viewBox="0 0 122 134" fill="none" xmlns="http://www.w3.org/2000/svg">
<g clip-path="url(#clip0_301_1809)">
<path d="M92.8257 122.507V98.8511C92.8257 96.2556 96.3999 96.2525 96.3999 98.8511V122.507C96.3999 125.102 92.8257 125.106 92.8257 122.507Z" fill="#AE0000"/>
<path d="M34.1877 35.1007V98.8894C34.1877 101.484 30.6135 101.488 30.6135 98.8894V35.1007C30.6135 32.5062 34.1877 32.5021 34.1877 35.1007Z" fill="#AE0000"/>
<path d="M85.5254 72.1732H88.4919V27.1041L86.0113 19.4412C85.9015 19.1039 85.8782 18.74 85.9443 18.3893L88.8726 2.74986C89.1704 1.15719 90.4623 0 91.9432 0H97.2822C98.7631 0 100.055 1.15719 100.353 2.74986L103.281 18.3893C103.347 18.74 103.324 19.1039 103.214 19.4412L100.734 27.1041V72.1732H103.7C106.039 72.1732 107.942 74.2627 107.942 76.8316V78.9303C107.942 81.4992 106.039 83.5887 103.7 83.5887H102.787C102.982 85.3214 103.454 87.0174 104.179 88.5722C105.415 91.2219 106.068 94.1967 106.068 97.1745V106.268C106.068 108.863 102.495 108.867 102.495 106.268V97.1745C102.495 94.8161 101.977 92.4598 100.998 90.3612C100.016 88.2543 99.4017 85.943 99.1913 83.5877H90.0342C89.8238 85.943 89.2095 88.2543 88.2275 90.3612C87.2483 92.4598 86.7308 94.8161 86.7308 97.1735V125.62C86.7308 128.07 88.5459 130.063 90.777 130.063H98.4485C100.68 130.063 102.495 128.07 102.495 125.62V114.118C102.495 111.523 106.068 111.52 106.068 114.118V125.62C106.068 130.234 102.65 133.988 98.4485 133.988H90.777C86.5754 133.988 83.1575 130.234 83.1575 125.62V97.1745C83.1575 94.1967 83.81 91.2219 85.0461 88.5722C85.7712 87.0174 86.2431 85.3214 86.4385 83.5887H85.5254C83.1864 83.5887 81.2838 81.4992 81.2838 78.9303V76.8316C81.2838 74.2627 83.1864 72.1732 85.5254 72.1732ZM96.9248 3.92546H92.3007L89.5455 18.6429L91.5411 24.806H97.6843L99.68 18.6429L96.9248 3.92546ZM97.1594 28.7305H92.0661V72.1732H97.1594V28.7305ZM84.8571 78.9303C84.8571 79.3341 85.1568 79.6633 85.5254 79.6633H103.7C104.069 79.6633 104.368 79.3341 104.368 78.9303V76.8316C104.368 76.4268 104.069 76.0976 103.7 76.0976H85.5254C85.1568 76.0976 84.8571 76.4268 84.8571 76.8316V78.9303Z" fill="#AE0000"/>
<path d="M24.1072 84.7457V70.7889C24.1072 69.7043 24.9068 68.8262 25.8943 68.8262C26.881 68.8262 27.6805 69.7053 27.6805 70.7889V84.7457C27.6805 91.7032 25.3815 98.3591 21.2078 103.488C18.7477 106.51 17.3934 110.408 17.3934 114.466C17.3934 120.215 20.0862 125.477 24.4907 128.476V116.136C24.4907 113.287 26.6017 110.969 29.1958 110.969H35.6043C38.1994 110.969 40.3095 113.287 40.3095 116.136V128.476C44.714 125.477 47.4067 120.215 47.4067 114.466C47.4067 110.408 46.0524 106.51 43.5924 103.488C39.4187 98.3591 37.1196 91.7032 37.1196 84.7457V49.2428C37.1196 42.2854 39.4187 35.6295 43.5924 30.5008C46.0524 27.479 47.4067 23.5802 47.4067 19.5228C47.4067 13.7737 44.714 8.5111 40.3095 5.51283V17.8525C40.3095 20.7015 38.1994 23.02 35.6043 23.02H29.1958C26.6017 23.02 24.4907 20.7015 24.4907 17.8525V5.51283C20.0862 8.5111 17.3934 13.7737 17.3934 19.5228C17.3934 23.5802 18.7477 27.479 21.2078 30.5008C25.3815 35.6295 27.6805 42.2854 27.6805 49.2428V63.1997C27.6805 64.2843 26.881 65.1624 25.8943 65.1624C24.9068 65.1624 24.1072 64.2833 24.1072 63.1997V49.2428C24.1072 43.2514 22.1311 37.5247 18.543 33.1168C15.4974 29.3743 13.8201 24.5472 13.8201 19.5228C13.8201 11.8989 17.6447 4.96592 23.801 1.42995C25.7407 0.316711 28.0649 1.85827 28.0649 4.26159V17.8525C28.0649 18.5374 28.5722 19.0955 29.1958 19.0955H35.6043C36.2279 19.0955 36.7362 18.5374 36.7362 17.8525V4.26159C36.7362 1.85929 39.0585 0.314667 41.0001 1.42995C47.1563 4.96592 50.981 11.8989 50.981 19.5228C50.981 24.5472 49.3037 29.3743 46.2581 33.1168C42.6699 37.5247 40.6939 43.2514 40.6939 49.2428V84.7457C40.6939 90.7372 42.6699 96.4639 46.2581 100.872C49.3037 104.614 50.981 109.441 50.981 114.466C50.981 122.09 47.1563 129.023 41.0001 132.559C40.0889 133.082 39.0194 133.046 38.1389 132.46C37.2602 131.877 36.7362 130.855 36.7362 129.727V116.136C36.7362 115.451 36.2279 114.894 35.6043 114.894H29.1958C28.5722 114.894 28.0649 115.451 28.0649 116.136V129.727C28.0649 132.13 25.7417 133.673 23.801 132.559C17.6447 129.023 13.8192 122.09 13.8192 114.466C13.8192 109.441 15.4974 104.614 18.543 100.872C22.1311 96.4639 24.1072 90.7372 24.1072 84.7457Z" fill="#AE0000"/>
</g>
<defs>
<clipPath id="clip0_301_1809">
<rect width="122" height="133.988" fill="white" transform="matrix(-1 0 0 1 122 0)"/>
</clipPath>
</defs>
</svg>
