<svg width="157" height="155" viewBox="0 0 157 155" fill="none" xmlns="http://www.w3.org/2000/svg">
<path d="M99.3276 97.3906C130.918 100.73 154.038 111.452 154.038 124.155C154.038 130.738 147.831 136.794 137.427 141.556" stroke="#AE0000" stroke-width="5" stroke-linecap="round" stroke-linejoin="round"/>
<path d="M124.878 146.126C109.723 150.185 94.1358 152.156 78.5036 151.99C36.7803 151.99 3 139.527 3 124.155C3 111.452 26.0739 100.747 57.6193 97.4072" stroke="#AE0000" stroke-width="5" stroke-linecap="round" stroke-linejoin="round"/>
<path d="M46.9434 17.7531C50.8887 13.0333 55.7517 9.27183 61.1991 6.72625C66.6465 4.18068 72.5495 2.9112 78.5039 3.00483C100.294 3.00483 117.947 19.5267 117.947 39.8995" stroke="#AE0000" stroke-width="5" stroke-linecap="round" stroke-linejoin="round"/>
<path d="M39.0454 39.9001C39.0442 38.2203 39.1654 36.5429 39.4079 34.8828" stroke="#AE0000" stroke-width="5" stroke-linecap="round" stroke-linejoin="round"/>
<path d="M95.6128 104.134C106.334 85.2797 118.052 60.0015 117.947 39.9004" stroke="#AE0000" stroke-width="5" stroke-linecap="round" stroke-linejoin="round"/>
<path d="M39.0455 39.9004C38.8643 76.827 78.3829 131.25 78.3829 131.25C78.3829 131.25 82.5809 125.53 88.2286 116.518" stroke="#AE0000" stroke-width="5" stroke-linecap="round" stroke-linejoin="round"/>
<path d="M78.5036 66.7761C86.8269 66.7761 93.5741 59.6366 93.5741 50.8295C93.5741 42.0224 86.8269 34.8828 78.5036 34.8828C70.1804 34.8828 63.4331 42.0224 63.4331 50.8295C63.4331 59.6366 70.1804 66.7761 78.5036 66.7761Z" stroke="#AE0000" stroke-width="5" stroke-linecap="round" stroke-linejoin="round"/>
</svg>
