<svg width="169" height="150" viewBox="0 0 169 150" fill="none" xmlns="http://www.w3.org/2000/svg">
<path d="M143.577 9.82543C110.67 -8.56151 85.8247 16.7958 85.8247 16.7958C85.8247 16.7958 51.0406 -14.2447 19.4615 16.7958C-10.143 45.8639 7.59701 78.8935 15.8034 87.0005" stroke="#AE0000" stroke-width="5" stroke-linecap="round" stroke-linejoin="round"/>
<path d="M85.4635 16.4395L61.7005 42.0043C60.0054 43.9918 59.0684 46.5642 59.0684 49.2299C59.0684 51.8956 60.0054 54.4679 61.7005 56.4554V56.4554C62.6303 57.5585 63.7646 58.4517 65.0345 59.0805C66.3043 59.7093 67.683 60.0605 69.0866 60.1129C70.4901 60.1652 71.8891 59.9174 73.1984 59.3847C74.5076 58.8521 75.6997 58.0456 76.7019 57.0145L81.2767 52.3048C84.2983 49.7568 87.9148 48.1015 91.7518 47.5103H103.908C106.383 47.5094 108.775 46.5776 110.649 44.8844L122.45 34.262" stroke="#AE0000" stroke-width="5" stroke-linecap="round" stroke-linejoin="round"/>
<path d="M33.3389 98.6763C38.4284 92.9145 39.3246 85.195 35.3405 81.4343C31.3564 77.6736 24.0008 79.2958 18.9112 85.0576C13.8217 90.8194 12.9255 98.5388 16.9096 102.3C20.8937 106.06 28.2493 104.438 33.3389 98.6763Z" stroke="#AE0000" stroke-width="5" stroke-linecap="round" stroke-linejoin="round"/>
<path d="M47.6112 112.508C53.6343 105.689 55.2872 97.1127 51.3032 93.352C47.3191 89.5913 39.2067 92.0702 33.1836 98.889C27.1605 105.708 25.5076 114.284 29.4916 118.045C33.4757 121.805 41.5881 119.326 47.6112 112.508Z" stroke="#AE0000" stroke-width="5" stroke-linecap="round" stroke-linejoin="round"/>
<path d="M62.8357 126.521C67.9251 120.759 68.8213 113.04 64.8373 109.279C60.8532 105.518 53.4977 107.14 48.4082 112.902C43.3187 118.664 42.4226 126.384 46.4066 130.144C50.3907 133.905 57.7462 132.283 62.8357 126.521Z" stroke="#AE0000" stroke-width="5" stroke-linecap="round" stroke-linejoin="round"/>
<path d="M77.7766 139.568C82.8662 133.806 83.7624 126.087 79.7783 122.326C75.7942 118.565 68.4385 120.187 63.349 125.949C58.2594 131.711 57.3633 139.43 61.3474 143.191C65.3315 146.952 72.6871 145.33 77.7766 139.568Z" stroke="#AE0000" stroke-width="5" stroke-linecap="round" stroke-linejoin="round"/>
<path d="M81.8203 133.815L85.3809 137.014L89.9933 141.176C91.5766 142.604 93.634 143.355 95.7417 143.274C97.8494 143.194 99.8468 142.289 101.322 140.745L104.834 137.064C105.548 136.322 106.108 135.44 106.481 134.471C106.854 133.502 107.034 132.467 107.008 131.425C106.982 130.384 106.752 129.359 106.332 128.411C105.911 127.462 105.308 126.611 104.559 125.906L85.6074 108" stroke="#AE0000" stroke-width="5" stroke-linecap="round" stroke-linejoin="round"/>
<path d="M97.476 118.916L105.986 126.633C107.768 128.24 110.079 129.085 112.447 128.994C114.814 128.904 117.058 127.885 118.719 126.146L120.724 124.033C121.557 123.157 122.21 122.118 122.646 120.978C123.081 119.838 123.29 118.619 123.259 117.394C123.229 116.17 122.96 114.964 122.469 113.848C121.977 112.732 121.273 111.729 120.398 110.898L90.759 82.8008" stroke="#AE0000" stroke-width="5" stroke-linecap="round" stroke-linejoin="round"/>
<path d="M107.823 46.6807L141.527 83.1976C142.208 83.938 142.74 84.8102 143.091 85.7637C143.442 86.7171 143.606 87.7328 143.573 88.7518C143.54 89.7709 143.31 90.773 142.898 91.7001C142.485 92.6272 141.898 93.4609 141.17 94.1527L139.064 96.1703C137.889 97.2955 136.343 97.921 134.738 97.921C133.132 97.921 131.587 97.2955 130.411 96.1703L128.337 94.136" stroke="#AE0000" stroke-width="5" stroke-linecap="round" stroke-linejoin="round"/>
<path d="M142.764 84.4817C142.764 84.4817 176.025 69.181 162.117 27.3613" stroke="#AE0000" stroke-width="5" stroke-linecap="round" stroke-linejoin="round"/>
<path d="M113.88 105.441L117.183 108.645C118.142 109.573 119.268 110.289 120.494 110.753C121.72 111.217 123.022 111.419 124.323 111.347C125.624 111.275 126.899 110.93 128.071 110.333C129.244 109.735 130.291 108.898 131.152 107.869C132.44 106.339 133.105 104.338 133.003 102.297C132.901 100.256 132.04 98.3389 130.607 96.959L103.76 71.041" stroke="#AE0000" stroke-width="5" stroke-linecap="round" stroke-linejoin="round"/>
</svg>
