<svg width="26" height="27" viewBox="0 0 26 27" fill="none" xmlns="http://www.w3.org/2000/svg">
<g clip-path="url(#clip0_858_1588)">
<path d="M17.875 1.03784H8.125C7.58646 1.03845 7.07016 1.25265 6.68936 1.63345C6.30856 2.01425 6.09435 2.53056 6.09375 3.06909V24.1941C6.09435 24.7326 6.30856 25.2489 6.68936 25.6297C7.07016 26.0105 7.58646 26.2247 8.125 26.2253H17.875C18.4135 26.2247 18.9298 26.0105 19.3106 25.6297C19.6914 25.2489 19.9056 24.7326 19.9062 24.1941V3.06909C19.9056 2.53056 19.6914 2.01425 19.3106 1.63345C18.9298 1.25265 18.4135 1.03845 17.875 1.03784ZM15.7545 1.85034L15.5107 3.06909H10.4893L10.2456 1.85034H15.7545ZM19.0938 24.1941C19.0934 24.5172 18.9649 24.827 18.7364 25.0555C18.5079 25.284 18.1981 25.4125 17.875 25.4128H8.125C7.80188 25.4125 7.4921 25.284 7.26361 25.0555C7.03513 24.827 6.90661 24.5172 6.90625 24.1941V3.06909C6.90661 2.74597 7.03513 2.43619 7.26361 2.20771C7.4921 1.97922 7.80188 1.8507 8.125 1.85034H9.41693L9.75787 3.55502C9.77629 3.64711 9.82605 3.72998 9.89868 3.78952C9.97131 3.84906 10.0623 3.8816 10.1562 3.88159H15.8438C15.9377 3.8816 16.0287 3.84906 16.1013 3.78952C16.174 3.72998 16.2237 3.64711 16.2421 3.55502L16.5831 1.85034H17.875C18.1981 1.8507 18.5079 1.97922 18.7364 2.20771C18.9649 2.43619 19.0934 2.74597 19.0938 3.06909V24.1941Z" fill="#868686"/>
<path d="M10.5625 23.7878H8.125C8.01726 23.7878 7.91392 23.8306 7.83774 23.9068C7.76155 23.983 7.71875 24.0863 7.71875 24.1941C7.71875 24.3018 7.76155 24.4052 7.83774 24.4814C7.91392 24.5575 8.01726 24.6003 8.125 24.6003H10.5625C10.6702 24.6003 10.7736 24.5575 10.8498 24.4814C10.9259 24.4052 10.9687 24.3018 10.9687 24.1941C10.9687 24.0863 10.9259 23.983 10.8498 23.9068C10.7736 23.8306 10.6702 23.7878 10.5625 23.7878Z" fill="#868686"/>
<path d="M12.1875 23.7878H11.7812C11.6735 23.7878 11.5702 23.8306 11.494 23.9068C11.4178 23.983 11.375 24.0863 11.375 24.1941C11.375 24.3018 11.4178 24.4052 11.494 24.4814C11.5702 24.5575 11.6735 24.6003 11.7812 24.6003H12.1875C12.2952 24.6003 12.3986 24.5575 12.4748 24.4814C12.5509 24.4052 12.5937 24.3018 12.5937 24.1941C12.5937 24.0863 12.5509 23.983 12.4748 23.9068C12.3986 23.8306 12.2952 23.7878 12.1875 23.7878Z" fill="#868686"/>
</g>
<defs>
<clipPath id="clip0_858_1588">
<rect width="26" height="26" fill="white" transform="translate(0 0.631592)"/>
</clipPath>
</defs>
</svg>
