<svg width="52" height="52" viewBox="0 0 52 52" fill="none" xmlns="http://www.w3.org/2000/svg">
<g clip-path="url(#clip0_33_240)">
<path d="M26 0C11.6398 0 0 11.6414 0 26C0 40.3602 11.6398 52 26 52C40.3602 52 52 40.3602 52 26C52 11.6414 40.36 0 26 0ZM26 47.1249C14.3326 47.1249 4.87508 37.6674 4.87508 26C4.87508 14.3326 14.3326 4.87508 26 4.87508C37.6674 4.87508 47.1249 14.3326 47.1249 26C47.1249 37.6674 37.6674 47.1249 26 47.1249Z" fill="#AE0000"/>
<path d="M27.2722 14.6138H23.1203C21.8641 14.6138 21.1328 15.8943 21.1328 17.0057C21.1328 18.0848 21.7162 19.3976 23.1203 19.3976H24.4398V34.9147C24.4398 36.5024 25.5772 37.3878 26.835 37.3878C28.0928 37.3878 29.2318 36.5005 29.2318 34.9147V16.8644C29.2304 15.5952 28.53 14.6138 27.2722 14.6138Z" fill="#AE0000"/>
</g>
<defs>
<clipPath id="clip0_33_240">
<rect width="52" height="52" fill="white"/>
</clipPath>
</defs>
</svg>
