<svg width="12" height="22" viewBox="0 0 12 22" fill="none" xmlns="http://www.w3.org/2000/svg">
<path d="M6.00002 0C2.69206 0 0 2.61087 0 5.82089V16.8411C0 17.2345 0.328111 17.5528 0.733695 17.5528C1.13901 17.5528 1.46712 17.2345 1.46712 16.8411V5.82089C1.46712 3.39616 3.50014 1.42334 6.00002 1.42334C8.50017 1.42334 10.5331 3.39616 10.5331 5.82089V17.1824C10.5331 18.7597 9.21005 20.0434 7.58387 20.0434C7.57178 20.0434 7.56091 20.0497 7.54887 20.0503C7.53598 20.0496 7.52591 20.0434 7.51306 20.0434C5.88701 20.0434 4.56392 18.7597 4.56392 17.1824V10.3672C4.56392 9.59849 5.20783 8.97377 6.00002 8.97377C6.79239 8.97377 7.43635 9.59849 7.43635 10.3672V16.8411C7.43635 17.2345 7.76504 17.5528 8.16982 17.5528C8.57451 17.5528 8.90347 17.2345 8.90347 16.8411V10.3672C8.90347 8.8139 7.6011 7.55047 6.00002 7.55047C4.39917 7.55047 3.0968 8.81394 3.0968 10.3672V17.1824C3.0968 19.5444 5.0775 21.4667 7.51302 21.4667C7.52586 21.4667 7.53593 21.4604 7.54882 21.4597C7.56091 21.4604 7.57178 21.4667 7.58382 21.4667C10.0188 21.4667 12 19.5444 12 17.1824V5.82089C12 2.61087 9.30803 0 6.00002 0Z" fill="#868686" fill-opacity="0.5"/>
</svg>
