<svg width="43" height="33" viewBox="0 0 43 33" fill="none" xmlns="http://www.w3.org/2000/svg">
<path d="M1.07087 3.49184C6.92671 8.45109 17.2019 17.1759 20.2219 19.8963C20.6273 20.2635 21.0621 20.4502 21.5135 20.4502C21.964 20.4502 22.3981 20.2653 22.8026 19.8998C25.8252 17.1768 36.1004 8.45109 41.9563 3.49184C42.3209 3.18367 42.3765 2.64201 42.0813 2.26526C41.399 1.39467 40.3816 0.895508 39.2913 0.895508H3.73579C2.64554 0.895508 1.62812 1.39467 0.945875 2.26534C0.650708 2.64201 0.706291 3.18367 1.07087 3.49184Z" fill="#102234"/>
<path d="M42.3313 6.17955C42.0162 6.03288 41.6455 6.08405 41.3833 6.30805C34.8893 11.8132 26.6012 18.8697 23.9935 21.2195C22.5299 22.5406 20.4987 22.5406 19.0317 21.2177C16.2522 18.7134 6.94484 10.8011 1.64368 6.30797C1.37976 6.08397 1.00826 6.03455 0.695759 6.17947C0.381592 6.32538 0.180176 6.63963 0.180176 6.98597V29.3401C0.180176 31.3011 1.77476 32.8957 3.73576 32.8957H39.2913C41.2523 32.8957 42.8468 31.3011 42.8468 29.3401V6.98597C42.8468 6.63963 42.6454 6.32455 42.3313 6.17955Z" fill="#102234"/>
</svg>
