<svg width="15" height="27" viewBox="0 0 15 27" fill="none" xmlns="http://www.w3.org/2000/svg">
<path d="M14.3976 0.0056178L10.8092 0C6.77765 0 4.1723 2.60806 4.1723 6.64473V9.7084H0.564253C0.252474 9.7084 0 9.95502 0 10.2592V14.6981C0 15.0023 0.252762 15.2487 0.564253 15.2487H4.1723V26.4494C4.1723 26.7536 4.42478 27 4.73655 27H9.44403C9.75581 27 10.0083 26.7534 10.0083 26.4494V15.2487H14.2269C14.5387 15.2487 14.7912 15.0023 14.7912 14.6981L14.7929 10.2592C14.7929 10.1132 14.7333 9.97328 14.6277 9.86991C14.522 9.76654 14.3781 9.7084 14.2284 9.7084H10.0083V7.11129C10.0083 5.86301 10.3132 5.22933 11.9797 5.22933L14.3971 5.22848C14.7086 5.22848 14.961 4.98186 14.961 4.67794V0.556162C14.961 0.25252 14.7089 0.00617958 14.3976 0.0056178Z" fill="white"/>
</svg>
