<svg width="309" height="23" viewBox="0 0 309 23" fill="none" xmlns="http://www.w3.org/2000/svg">
<mask maskUnits="userSpaceOnUse" x="0" y="0" width="0" height="0" fill="black">
<rect fill="white" width="0" height="0"/>
</mask>
<path d="M0.43934 10.4393C-0.146447 11.0251 -0.146447 11.9749 0.43934 12.5607L9.98528 22.1066C10.5711 22.6924 11.5208 22.6924 12.1066 22.1066C12.6924 21.5208 12.6924 20.5711 12.1066 19.9853L3.62132 11.5L12.1066 3.01472C12.6924 2.42893 12.6924 1.47919 12.1066 0.893398C11.5208 0.307611 10.5711 0.307611 9.98528 0.893398L0.43934 10.4393ZM308.561 12.5607C309.146 11.9749 309.146 11.0251 308.561 10.4393L299.015 0.893398C298.429 0.307611 297.479 0.307611 296.893 0.893398C296.308 1.47919 296.308 2.42893 296.893 3.01472L305.379 11.5L296.893 19.9853C296.308 20.5711 296.308 21.5208 296.893 22.1066C297.479 22.6924 298.429 22.6924 299.015 22.1066L308.561 12.5607ZM1.5 13H4.44231V10H1.5V13ZM10.3269 13H16.2115V10H10.3269V13ZM22.0962 13H27.9808V10H22.0962V13ZM33.8654 13H39.75V10H33.8654V13ZM45.6346 13H51.5192V10H45.6346V13ZM57.4039 13H63.2885V10H57.4039V13ZM69.1731 13H75.0577V10H69.1731V13ZM80.9423 13H86.8269V10H80.9423V13ZM92.7115 13H98.5961V10H92.7115V13ZM104.481 13H110.365V10H104.481V13ZM116.25 13H122.135V10H116.25V13ZM128.019 13H133.904V10H128.019V13ZM139.788 13H145.673V10H139.788V13ZM151.558 13H157.442V10H151.558V13ZM163.327 13H169.212V10H163.327V13ZM175.096 13H180.981V10H175.096V13ZM186.865 13H192.75V10H186.865V13ZM198.635 13H204.519V10H198.635V13ZM210.404 13H216.288V10H210.404V13ZM222.173 13H228.058V10H222.173V13ZM233.942 13H239.827V10H233.942V13ZM245.711 13H251.596V10H245.711V13ZM257.481 13H263.365V10H257.481V13ZM269.25 13H275.135V10H269.25V13ZM281.019 13H286.904V10H281.019V13ZM292.788 13H298.673V10H292.788V13ZM304.558 13H307.5V10H304.558V13Z" fill="black" fill-opacity="0.5" mask="url(#)"/>
</svg>
