<svg width="29" height="28" viewBox="0 0 29 28" fill="none" xmlns="http://www.w3.org/2000/svg">
<path d="M6.49293 8.89453H0.355469V27.3733H6.49293V8.89453Z" fill="white"/>
<path d="M26.6327 10.5827C25.3435 9.17169 23.6383 8.46606 21.5183 8.46606C20.7372 8.46606 20.0271 8.5624 19.3885 8.7552C18.75 8.94787 18.2108 9.21819 17.7705 9.5663C17.3304 9.91442 16.98 10.2376 16.7198 10.5358C16.4724 10.819 16.2304 11.149 15.9944 11.5223V8.89464H9.87524L9.894 9.7898C9.90658 10.3867 9.91277 12.2264 9.91277 15.3092C9.91277 18.3922 9.90039 22.4136 9.8755 27.3736H15.9944V17.0618C15.9944 16.4279 16.0622 15.9246 16.1988 15.5513C16.4594 14.917 16.8527 14.386 17.3799 13.9573C17.9071 13.528 18.561 13.3136 19.3423 13.3136C20.4083 13.3136 21.1928 13.6834 21.6951 14.4231C22.1971 15.1627 22.4482 16.1852 22.4482 17.4905V27.3731H28.567V16.7824C28.5666 14.0597 27.9223 11.9932 26.6327 10.5827Z" fill="white"/>
<path d="M3.45926 0C2.43027 0 1.59651 0.301674 0.957789 0.904435C0.319133 1.50733 0 2.26847 0 3.18858C0 4.09582 0.309948 4.85435 0.929908 5.46331C1.54967 6.07234 2.36812 6.37702 3.3848 6.37702H3.422C4.46363 6.37702 5.30377 6.0726 5.94223 5.46331C6.58069 4.85435 6.8937 4.09608 6.88139 3.18858C6.86901 2.26853 6.55261 1.50733 5.93285 0.904435C5.31315 0.301413 4.48831 0 3.45926 0Z" fill="white"/>
</svg>
