<svg width="42" height="41" viewBox="0 0 42 41" fill="none" xmlns="http://www.w3.org/2000/svg">
<g clip-path="url(#clip0_31_32)">
<path d="M38.4391 25.1526C41.9546 30.3667 40.1278 35.988 36.6828 38.7659C32.9673 41.7616 27.7269 41.7488 24.047 38.6805C20.3009 35.5566 19.1348 29.8705 22.3633 25.2181C22.1498 25.0921 21.9163 25.1604 21.702 25.1569C21.0313 25.1455 20.3607 25.1491 19.6894 25.1569C19.2288 25.1569 19.2224 25.1647 19.2217 25.646C19.2217 28.1396 19.2217 30.6334 19.2217 33.1275C19.2217 33.3162 19.2266 33.5048 19.2217 33.6935C19.1747 34.8696 18.3503 35.7011 17.1699 35.7146C15.4513 35.7331 13.7321 35.7224 12.0135 35.7239C11.9501 35.7239 11.8875 35.7239 11.8248 35.7239C11.2994 35.7239 11.3002 35.7239 11.3002 36.2813C11.3002 36.9099 11.3244 37.54 11.2902 38.1672C11.2368 39.146 10.4572 39.7775 9.49687 39.6558C8.99853 39.5931 8.66322 39.2998 8.39625 38.8997C7.78329 37.9742 7.15324 37.0594 6.55594 36.1232C6.36444 35.8235 6.15513 35.7111 5.79633 35.7182C4.60173 35.741 3.40642 35.7274 2.21182 35.7182C0.842096 35.7096 0.00915361 34.8952 0.00488211 33.5304C-0.000813229 29.2556 0.000610431 24.9803 0.00915343 20.7046C0.00915343 19.2999 0.834266 18.4976 2.25454 18.4926C3.97382 18.4848 5.69239 18.4869 7.41167 18.4848C7.91001 18.4848 7.92709 18.556 7.92709 17.9786C7.92709 13.41 7.92709 8.84141 7.92709 4.2728C7.92709 3.58153 7.92282 2.88955 7.93279 2.19828C7.95272 0.821429 8.75932 0.0105563 10.134 0.00628477C13.0481 -0.00225824 15.962 -0.00415668 18.8757 0.000589437L38.4968 0.00414903C38.7271 -0.00405845 38.9577 0.000933152 39.1874 0.0190993C40.2638 0.142973 40.9949 0.957406 41.0006 2.07298C41.0113 4.29416 41.0006 6.51534 41.0006 8.73723C41.0006 13.3884 41.0006 18.041 41.0006 22.6951C41.0121 22.967 41.0007 23.2395 40.9664 23.5095C40.8127 24.4407 40.0224 25.0978 39.0172 25.1526C38.8535 25.1626 38.689 25.1526 38.4391 25.1526ZM9.44704 1.68783C9.46839 1.83947 9.59654 1.89215 9.69194 1.96548C13.9691 5.27352 18.2473 8.5799 22.5264 11.8846C22.8751 12.1551 23.2795 12.3449 23.7103 12.4406C24.8116 12.6884 25.7692 12.4057 26.6512 11.7209C30.7072 8.57278 34.768 5.43062 38.8335 2.29439C38.9994 2.16624 39.1717 2.04521 39.3319 1.90781C39.5455 1.71987 39.5184 1.56681 39.255 1.45219C39.0151 1.34825 38.7567 1.3874 38.5096 1.3874C29.3496 1.3874 20.1882 1.3874 11.0254 1.3874C10.69 1.3874 10.3547 1.39381 10.0194 1.3931C9.77167 1.39167 9.56806 1.46144 9.44704 1.68783ZM30.4393 39.6145C35.3096 39.5504 39.045 35.7267 38.9624 30.8487C38.8855 26.3308 35.0931 22.4224 30.2215 22.5135C25.5613 22.6004 21.8145 26.4825 21.8664 31.2089C21.9163 35.8606 25.8076 39.6757 30.4393 39.6145ZM38.3957 23.7722C38.2733 23.6298 38.2533 23.5964 38.2184 23.5693C34.3826 20.2831 30.5485 16.995 26.716 13.705C26.4768 13.4992 26.2889 13.5277 26.0447 13.6253C25.0273 14.0261 23.9922 14.0453 22.9777 13.6495C22.6075 13.5071 22.3811 13.5669 22.095 13.8132C18.3958 17.0012 14.6915 20.183 10.9819 23.3586C10.863 23.4611 10.7014 23.5323 10.6502 23.7031C10.7619 23.8192 10.8944 23.7694 11.0097 23.7694C15.0975 23.7729 19.1853 23.7694 23.2732 23.7822C23.6291 23.7822 23.8577 23.6362 24.104 23.4305C25.9286 21.9091 28.0423 21.1431 30.4094 21.141C32.8015 21.141 34.9273 21.9276 36.7718 23.459C36.9441 23.6013 37.0879 23.7914 37.3592 23.7758C37.6653 23.7587 37.9735 23.7722 38.3957 23.7722ZM9.99023 25.0629C7.85875 24.9882 7.97906 23.7708 7.97906 23.7708C7.95984 23.4027 7.92994 23.1137 7.93564 22.8246C7.93991 22.5726 7.83312 22.5036 7.59819 22.51C7.11622 22.5228 6.63354 22.5192 6.15157 22.51C5.16557 22.495 5.31222 22.6673 5.28446 21.6407C5.27093 21.1281 5.28446 21.1253 5.80985 21.1239C6.49899 21.1239 7.18812 21.1239 7.89007 21.1239C7.94987 20.7162 7.94987 20.302 7.89007 19.8944C7.77118 19.8859 7.66938 19.8716 7.56686 19.8716C5.80653 19.8716 4.04596 19.8716 2.28515 19.8716C1.55615 19.8716 1.37675 20.0603 1.37603 20.8177C1.37603 25.0095 1.37603 29.2008 1.37603 33.3916C1.37603 34.1747 1.54191 34.3321 2.34994 34.3328C3.71255 34.3328 5.07516 34.3427 6.43705 34.3185C6.8343 34.3121 7.08134 34.4139 7.30417 34.7699C7.94489 35.7993 8.64115 36.7981 9.31533 37.8084C9.38652 37.913 9.45772 38.0141 9.52891 38.1173C9.6001 38.2206 9.67983 38.2597 9.79374 38.2213C9.88985 38.1871 9.89341 38.0967 9.89697 38.0141C9.90266 37.8674 9.90551 37.7208 9.90551 37.5741C9.90551 36.7355 9.90551 35.8976 9.90551 35.0589C9.90551 34.2865 9.82293 34.3342 10.5996 34.3335H12.5496C13.9734 34.3335 15.3987 34.3335 16.8253 34.3335C17.696 34.3363 17.8384 34.2039 17.8384 33.3674C17.8412 30.8112 17.8412 28.2547 17.8384 25.6979C17.8384 25.1142 17.8868 25.1547 17.2973 25.1547H17.1713C17.1713 25.1547 12.1238 25.1369 9.99236 25.0629H9.99023ZM27.6415 12.6941L39.5932 22.9357V3.44911L27.6415 12.6941ZM21.3054 12.6855L9.34025 3.43915V22.9492L21.3054 12.6855Z" fill="white"/>
<path d="M30.3434 37.1139L23.4321 31.0725L30.2964 25.064C30.5143 25.1772 30.4388 25.3423 30.4388 25.474C30.4438 26.312 30.4502 27.1506 30.4317 27.9885C30.4239 28.3117 30.5029 28.4555 30.8588 28.5246C33.4538 29.0329 35.3047 30.9857 35.6778 33.587C35.8316 34.6613 35.6215 35.7128 35.472 36.7679C35.2478 36.7964 35.2165 36.6255 35.1446 36.5173C34.9103 36.1699 34.6861 35.816 34.4597 35.4636C33.5826 34.0996 32.2827 33.6475 30.7307 33.7244C30.4367 33.7387 30.4659 33.9295 30.463 34.1153C30.4516 34.8692 30.4466 35.6238 30.4317 36.3785C30.4246 36.5835 30.4637 36.7942 30.3434 37.1139ZM29.062 27.965C27.9158 28.9695 26.8814 29.8715 25.8526 30.7799C25.5273 31.0647 25.5294 31.0804 25.8754 31.3851C26.8023 32.2005 27.7323 33.012 28.6654 33.8198C28.7672 33.9067 28.8484 34.0555 29.1161 34.0078C29.1161 33.5899 29.1267 33.1535 29.1118 32.7263C29.1025 32.4522 29.215 32.3583 29.4806 32.3618C30.0238 32.3704 30.5684 32.3576 31.1123 32.3554C32.0477 32.3511 32.9412 32.5256 33.7691 32.9812C33.8702 33.0367 33.9713 33.1414 34.1173 33.0218C34.1051 32.9455 34.087 32.8703 34.0632 32.7968C33.3612 31.0526 32.084 30.0452 30.2131 29.8068C29.9425 29.7797 29.6704 29.7718 29.3987 29.7833C29.1574 29.7875 29.0577 29.6822 29.0605 29.4465C29.0684 29.0108 29.0641 28.5709 29.0641 27.9665L29.062 27.965Z" fill="white"/>
<path d="M9.59578 26.4144C11.7116 26.4144 13.8274 26.4144 15.9432 26.4144C16.6409 26.4144 16.5804 26.3981 16.5775 27.0744C16.574 27.8575 16.6623 27.797 15.887 27.797C11.6966 27.797 7.50677 27.797 3.31738 27.797C3.25402 27.797 3.19137 27.797 3.12872 27.797C2.65815 27.7863 2.64818 27.7856 2.64818 27.2986C2.64818 26.2414 2.56845 26.4201 3.50248 26.4166C5.53144 26.4087 7.56325 26.4144 9.59578 26.4144Z" fill="white"/>
<path d="M8.27525 31.6966C9.97152 31.6966 11.668 31.6966 13.3648 31.6966C13.9286 31.6966 13.9378 31.7015 13.9343 32.2291C13.9286 33.2115 14.0496 33.0741 13.1191 33.0755C9.89178 33.0812 6.66585 33.0812 3.44133 33.0755C3.33668 33.0755 3.23203 33.0755 3.12738 33.0755C2.65894 33.0641 2.64897 33.0634 2.64826 32.5772C2.64826 31.5164 2.5671 31.703 3.50256 31.6973C5.09441 31.6894 6.68269 31.6966 8.27525 31.6966Z" fill="white"/>
<path d="M4.02648 21.845C4.02221 22.5982 4.08984 22.5192 3.35443 22.5184C2.54498 22.5184 2.65604 22.5832 2.64821 21.8165C2.64038 21.0498 2.63895 21.1316 3.32239 21.1331C4.07631 21.1352 4.02221 21.0469 4.02648 21.845Z" fill="white"/>
<path d="M15.8443 33.0842C15.7613 33.08 15.6781 33.08 15.5951 33.0842C15.3103 33.112 15.1758 33.0194 15.1886 32.7055C15.2377 31.5102 15.0063 31.7302 16.2152 31.6882C16.4736 31.6789 16.6117 31.7636 16.5882 32.0406C16.5797 32.1438 16.5882 32.2477 16.5882 32.3517C16.5697 33.1604 16.6637 33.0707 15.8443 33.0842Z" fill="white"/>
</g>
<defs>
<clipPath id="clip0_31_32">
<rect width="41.0071" height="41" fill="white"/>
</clipPath>
</defs>
</svg>
