<svg width="34" height="27" viewBox="0 0 34 27" fill="none" xmlns="http://www.w3.org/2000/svg">
<path d="M29.7491 6.72885C29.771 7.02486 29.771 7.31919 29.771 7.61351C29.771 16.6208 22.9331 27 10.4365 27C6.58653 27 3.00983 25.8819 0 23.94C0.546628 24.0026 1.07301 24.0246 1.64157 24.0246C4.81843 24.0246 7.74221 22.9488 10.0789 21.1135C7.09098 21.0509 4.58729 19.0888 3.72348 16.3891C4.14358 16.4517 4.56536 16.494 5.00738 16.494C5.61644 16.494 6.22886 16.4094 6.79742 16.2622C3.6813 15.6296 1.34801 12.8877 1.34801 9.57567V9.49109C2.254 9.99686 3.30508 10.3132 4.41858 10.3555C2.58805 9.13418 1.3885 7.04516 1.3885 4.68212C1.3885 3.41686 1.72424 2.25648 2.31305 1.24496C5.65861 5.37733 10.6879 8.07868 16.3263 8.37469C16.2217 7.86724 16.1576 7.34118 16.1576 6.81343C16.1576 3.05826 19.1877 0 22.9533 0C24.9104 0 26.6768 0.822076 27.9185 2.15161C29.4538 1.85559 30.925 1.28555 32.2308 0.505763C31.7264 2.08733 30.6517 3.41686 29.2429 4.26093C30.6112 4.11207 31.9373 3.73318 33.1554 3.20542C32.2308 4.55525 31.0751 5.75792 29.7491 6.72885Z" fill="white"/>
</svg>
