<svg width="133" height="137" viewBox="0 0 133 137" fill="none" xmlns="http://www.w3.org/2000/svg">
<path d="M58.0002 77.9244H5.8547C3.47039 77.9244 3.47039 74.3731 5.8547 74.3731H52.9477C55.6275 74.3731 55.6307 70.381 52.9477 70.381H9.84965V11.5366H119.871V70.381H106.828C104.15 70.381 104.144 74.3731 106.828 74.3731H124.599C126.983 74.3731 126.983 77.9244 124.599 77.9244H102.138C99.4591 77.9244 99.4549 81.9175 102.138 81.9175H124.599C127.827 81.9175 130.453 79.3293 130.453 76.1493C130.453 72.9682 127.827 70.381 124.599 70.381H123.924V11.5366H124.599C127.827 11.5366 130.453 8.94828 130.453 5.76828C130.453 2.58725 127.827 0 124.599 0H5.8547C2.62601 0 0 2.58725 0 5.76828C0 8.92956 2.5954 11.5054 5.79664 11.5366V70.381C2.5954 70.4122 0 72.9869 0 76.1493C0 79.3293 2.62601 81.9175 5.8547 81.9175H58.0002C60.679 81.9175 60.6832 77.9244 58.0002 77.9244ZM5.8547 3.99319H124.599C126.983 3.99319 126.983 7.54338 124.599 7.54338H5.8547C3.46933 7.54338 3.4725 3.99319 5.8547 3.99319Z" fill="#AE0000"/>
<path d="M34.8774 18.759C34.8774 17.0058 33.4293 15.5801 31.6498 15.5801H18.9282C17.1487 15.5801 15.7017 17.0058 15.7017 18.759V26.5021C15.7017 28.2553 17.1487 29.681 18.9282 29.681H31.6498C33.4293 29.681 34.8774 28.2553 34.8774 26.5021V18.759ZM30.8244 25.6878H19.7536V19.5722H30.8244V25.6878Z" fill="#AE0000"/>
<path d="M34.8774 37.261C34.8774 35.5077 33.4293 34.082 31.6498 34.082H18.9282C17.1487 34.082 15.7017 35.5077 15.7017 37.261V45.004C15.7017 46.7573 17.1487 48.183 18.9282 48.183H31.6498C33.4293 48.183 34.8774 46.7573 34.8774 45.004V37.261ZM30.8244 44.1898H19.7536V38.0742H30.8244V44.1898Z" fill="#AE0000"/>
<path d="M31.6498 52.585H18.9282C17.1487 52.585 15.7017 54.0107 15.7017 55.7639V63.507C15.7017 65.2602 17.1487 66.6859 18.9282 66.6859H31.6498C33.4293 66.6859 34.8774 65.2602 34.8774 63.507V55.7639C34.8774 54.0107 33.4293 52.585 31.6498 52.585ZM30.8244 62.6938H19.7536V56.5771H30.8244V62.6938Z" fill="#AE0000"/>
<path d="M120.605 90.7196C118.398 89.7848 116.083 89.1171 113.725 88.6648L93.193 84.7319V79.7332C98.959 75.8585 102.08 70.37 102.76 64.2065C105.752 63.9725 108.115 61.4986 108.115 58.4913V54.3878C112.995 52.2977 112.335 45.2825 107.173 44.0991V42.5144C107.173 28.2772 95.458 16.7344 81.0065 16.7344H78.8133C64.3618 16.7344 52.6471 28.2772 52.6471 42.5144V44.0981C47.4869 45.2815 46.8251 52.2977 51.7056 54.3878V58.4902C51.7056 61.4986 54.0678 63.9725 57.0611 64.2055C57.7376 70.3408 60.8207 75.8304 66.6279 79.7332V84.7309L46.0958 88.6648C43.7379 89.1171 41.4232 89.7837 39.2162 90.7196C30.8854 94.2521 26.8208 99.8915 26.8208 107.857V111.958C26.8208 114.598 30.8728 114.602 30.8728 111.958V107.858C30.8728 101.876 33.6318 97.7389 39.6838 94.8813C39.9276 95.944 43.6408 105.874 43.6408 119.748V132.308H35.0777C32.7557 132.308 30.8728 130.453 30.8728 128.165V119.902C30.8728 117.263 26.8208 117.259 26.8208 119.902V128.165C26.8208 132.658 30.5171 136.3 35.0777 136.3H124.743C129.304 136.3 133 132.658 133 128.165V107.858C133 99.8915 128.934 94.2521 120.605 90.7196ZM116.358 93.3973C116.077 94.6161 112.127 105.092 112.127 119.748V132.308H81.9364V122.249C81.9364 119.258 82.8599 116.384 84.6068 113.938C87.2233 110.273 98.0007 94.952 101.197 90.3328C115.743 93.2185 113.989 92.6205 116.358 93.3973ZM78.5283 111.64C76.9736 109.463 74.9545 106.605 72.8467 103.61C73.4726 103.474 74.0837 103.237 74.6568 102.899L79.9099 99.7948L85.163 102.899C85.7361 103.237 86.3472 103.474 86.9731 103.61C84.8675 106.604 82.8483 109.461 81.2926 111.64C80.7743 112.366 80.3131 113.121 79.9099 113.9C79.5078 113.121 79.0465 112.366 78.5283 111.64ZM75.7735 97.5829C72.5649 99.2759 72.7929 99.7823 71.3353 99.6117C70.4286 99.5057 69.6148 99.0086 69.0956 98.2682C66.6733 94.8116 64.4304 91.6046 62.9622 89.5009L67.0205 88.7241C68.3314 92.6465 72.6514 95.7662 75.7735 97.5829ZM96.8587 89.5019C95.3863 91.6098 93.1381 94.8262 90.7095 98.2911C89.7184 99.7033 87.942 99.8842 87.2475 99.4734L84.0463 97.5829C87.1694 95.7662 91.4884 92.6465 92.7993 88.7241L96.8587 89.5019ZM68.1076 23.4552V25.9593C68.1076 28.5985 72.1596 28.6027 72.1596 25.9593V21.7352C73.9782 21.1685 75.8981 20.8284 77.8845 20.7473V30.619C77.8845 33.2583 81.9364 33.2624 81.9364 30.619V20.7473C83.9228 20.8284 85.8427 21.1695 87.6602 21.7352V25.9593C87.6602 28.5985 91.7132 28.6027 91.7132 25.9593V23.4562C104.381 30.3902 103.034 43.6426 103.121 43.9588H56.7001C56.7698 43.7019 55.5053 30.3549 68.1076 23.4552ZM53.8989 47.9509H105.922C107.865 47.9509 107.862 50.8429 105.922 50.8429H53.8989C51.9558 50.8429 51.9589 47.9509 53.8989 47.9509ZM60.9853 62.185C60.961 61.0993 60.0618 60.232 58.9588 60.232C58.6211 60.1489 55.7586 60.7499 55.7586 58.4913V54.836H104.063V58.4913C104.063 60.7468 101.123 60.1676 100.862 60.232C99.7591 60.232 98.8588 61.0993 98.8355 62.185C98.7268 67.1764 96.5747 71.8123 92.9291 74.9039C85.1904 81.4687 74.6315 81.4698 66.8917 74.9039C63.2461 71.8123 61.093 67.1754 60.9853 62.185ZM89.14 81.9377V86.377C89.14 89.947 82.9908 93.727 79.9099 95.2546C76.8322 93.728 70.6967 89.9574 70.6798 86.3916C70.6798 86.3874 70.6798 86.3822 70.6798 86.377V81.9377C76.5778 84.4439 83.2357 84.447 89.14 81.9377ZM43.4624 93.3973C45.8288 92.6226 44.0704 93.2195 58.6232 90.3328L59.781 91.9904C60.9621 93.6823 62.597 96.021 64.4093 98.6082C67.715 103.329 72.2746 109.821 75.2141 113.937C76.9609 116.384 77.8845 119.257 77.8845 122.249V132.307H47.6938V119.747C47.6938 104.714 43.8403 95.0362 43.4624 93.3973ZM128.947 128.165C128.947 130.449 127.062 132.307 124.743 132.307H116.18V119.748C116.18 106.255 119.987 95.5343 120.138 94.8813C126.189 97.7389 128.948 101.876 128.948 107.858V128.165H128.947Z" fill="#AE0000"/>
<path d="M90.9558 115.479C89.0454 115.479 87.4907 117.01 87.4907 118.892V122.893C87.4907 124.776 89.0454 126.307 90.9558 126.307H102.873C104.784 126.307 106.338 124.776 106.338 122.893V118.892C106.338 117.01 104.784 115.479 102.873 115.479H90.9558ZM102.285 122.314H91.5437V119.472H102.285V122.314Z" fill="#AE0000"/>
</svg>
