<svg width="156" height="156" viewBox="0 0 156 156" fill="none" xmlns="http://www.w3.org/2000/svg">
<g clip-path="url(#clip0_301_1868)">
<path d="M149.353 77.4417L149.238 77.4459C145.699 77.5791 142.645 80.0653 141.811 83.4925L139.363 93.5456C137.037 103.093 130.641 111.044 121.813 115.36C120.776 115.866 119.607 115.755 118.684 115.062C117.761 114.369 117.329 113.276 117.528 112.139L119.46 101.07C120.043 97.7345 117.898 94.6004 114.578 93.935C112.058 93.4307 109.534 94.5026 108.149 96.6674L95.6399 116.207C93.8489 114.916 91.331 115.071 89.7204 116.681L80.6471 125.754C79.7547 126.647 79.7547 128.093 80.6471 128.986L106.992 155.331C107.439 155.777 108.024 156 108.608 156C109.193 156 109.778 155.777 110.224 155.331L119.298 146.257C120.994 144.56 121.077 141.854 119.551 140.054C122.462 138.435 125.302 136.58 127.998 134.535C129.003 133.773 129.2 132.339 128.437 131.334C127.675 130.328 126.241 130.132 125.235 130.895C120.601 134.41 116.718 136.379 116.207 136.682L98.9844 119.46L111.998 99.1321C112.36 98.5656 113.02 98.2869 113.68 98.4167C114.549 98.5909 115.11 99.4112 114.958 100.284L113.025 111.353C112.533 114.174 113.649 116.996 115.938 118.716C118.228 120.436 121.247 120.723 123.82 119.466C133.871 114.552 141.155 105.499 143.803 94.6273L146.251 84.5741C147.039 81.3371 151.695 81.1866 151.421 84.0232C149.917 99.5291 142.987 114.118 131.907 125.101C131.011 125.99 131.005 127.437 131.893 128.333C132.782 129.229 134.228 129.236 135.125 128.347C146.96 116.614 154.363 101.029 155.969 84.4641C156.342 80.6272 153.257 77.3033 149.353 77.4417ZM108.608 150.483L85.4965 127.371L92.9726 119.912L116.066 143.025L108.608 150.483Z" fill="#AE0000"/>
<path d="M48.3237 38.5427L51.362 40.2264C51.3873 40.2407 51.4083 40.2611 51.4229 40.2864L56.1767 48.5197C56.1913 48.5447 56.1986 48.5733 56.198 48.6022L56.1374 52.076C56.1075 53.7938 57.0131 55.3946 58.5011 56.2539L65.3868 60.2288C66.1183 60.6517 66.9352 60.8626 67.7515 60.8626C68.5951 60.8626 69.4382 60.6374 70.1865 60.1874L73.1658 58.3973C73.1898 58.383 73.2179 58.3754 73.2468 58.3754H82.7543C82.7832 58.3754 82.8115 58.383 82.8362 58.3979L85.8145 60.1877C87.2877 61.0725 89.1271 61.0886 90.614 60.2291L97.4996 56.2539C98.9877 55.395 99.8929 53.7941 99.8634 52.076L99.803 48.6022C99.8024 48.5733 99.8097 48.545 99.8241 48.52L104.578 40.2861C104.593 40.2611 104.614 40.2407 104.638 40.227L107.677 38.5427C109.18 37.71 110.113 36.125 110.113 34.4069V26.456C110.113 24.7382 109.18 23.1535 107.677 22.3202L104.639 20.6365C104.614 20.6222 104.593 20.6018 104.578 20.5762L104.303 20.1006C103.672 19.008 102.274 18.6335 101.182 19.2648C100.089 19.8958 99.7147 21.2934 100.346 22.3863L100.62 22.8613C101.049 23.6042 101.672 24.2166 102.423 24.6331L105.461 26.3171C105.512 26.3454 105.543 26.3985 105.543 26.456V34.4069C105.543 34.4644 105.512 34.5175 105.462 34.5455L102.422 36.2304C101.672 36.6463 101.049 37.259 100.62 38.0013L95.8659 46.2351C95.4372 46.9783 95.2184 47.8244 95.2333 48.6818L95.2937 52.1555C95.2949 52.2131 95.2644 52.2667 95.2145 52.2957L88.3285 56.2712C88.2789 56.2996 88.2167 56.299 88.1683 56.2697L85.1902 54.4803C84.4547 54.0385 83.6126 53.8048 82.7546 53.8048H73.2471C72.3885 53.8048 71.546 54.0385 70.8117 54.4803L67.8331 56.2697C67.7841 56.2993 67.7225 56.2999 67.6728 56.2709L60.7872 52.296C60.7372 52.2667 60.7065 52.2134 60.7077 52.1555L60.7683 48.6818C60.7833 47.8244 60.5645 46.9783 60.1355 46.2348L55.3818 38.0016C54.9531 37.2587 54.33 36.6463 53.5789 36.2298L50.54 34.5455C50.4897 34.5178 50.4583 34.4644 50.4583 34.4069V26.456C50.4583 26.3985 50.49 26.3451 50.5397 26.3174L53.5798 24.6325C54.33 24.2166 54.9531 23.6039 55.3815 22.8616L60.1358 14.6278C60.5645 13.8846 60.7833 13.0385 60.7683 12.1811L60.7077 8.70738C60.7065 8.6501 60.7369 8.59648 60.7869 8.56753L67.6731 4.59166C67.7231 4.56302 67.7841 4.56363 67.8334 4.59349L70.812 6.38323C71.5473 6.82472 72.3894 7.05841 73.2471 7.05841H82.7546C83.6117 7.05841 84.4535 6.82502 85.1899 6.38292L88.1683 4.59349C88.2176 4.56363 88.2789 4.56302 88.3288 4.59197L95.2151 8.56784C95.2644 8.59648 95.2949 8.6501 95.2937 8.70738L95.2333 12.1814C95.2209 12.8999 95.3808 13.6302 95.6962 14.2929C96.2385 15.4324 97.6023 15.9172 98.7412 15.3755C99.8811 14.8334 100.366 13.47 99.8238 12.3304C99.8082 12.2981 99.8031 12.2725 99.8034 12.261L99.8637 8.78721C99.8935 7.06877 98.9877 5.46795 97.4999 4.60964L90.614 0.633774C89.1262 -0.22575 87.2865 -0.21021 85.8139 0.675516L82.8368 2.46434C82.8115 2.47957 82.7829 2.48749 82.7543 2.48749H73.2468C73.2179 2.48749 73.1895 2.47957 73.1648 2.46495L70.1871 0.675821C68.7152 -0.209296 66.8752 -0.226054 65.3871 0.633469L58.5015 4.60873C57.0134 5.46764 56.1078 7.06847 56.1374 8.7866L56.198 12.2603C56.1986 12.2893 56.1913 12.3176 56.177 12.3426L51.4226 20.5765C51.4083 20.6015 51.3873 20.6219 51.3629 20.6356L48.3228 22.3202C46.8206 23.1535 45.8877 24.7385 45.8877 26.4557V34.4066C45.8877 36.125 46.821 37.7097 48.3237 38.5427Z" fill="#AE0000"/>
<path d="M78.0001 16.6113C70.3799 16.6113 64.1804 22.8111 64.1804 30.4313C64.1804 38.0516 70.3802 44.251 78.0001 44.251C85.6207 44.251 91.8201 38.0513 91.8201 30.4313C91.8204 22.8108 85.6207 16.6113 78.0001 16.6113ZM78.0001 39.681C72.9 39.681 68.7507 35.5318 68.7507 30.4316C68.7507 25.3315 72.9 21.1816 78.0001 21.1816C83.1003 21.1816 87.2498 25.3312 87.2498 30.4313C87.2498 35.5315 83.1003 39.681 78.0001 39.681Z" fill="#AE0000"/>
<path d="M119.574 75.3031C125.244 75.3031 129.857 70.6901 129.857 65.0202C129.857 59.3503 125.244 54.7373 119.574 54.7373C113.904 54.7373 109.291 59.3503 109.291 65.0202C109.291 70.6901 113.904 75.3031 119.574 75.3031ZM119.574 59.3076C122.724 59.3076 125.287 61.8703 125.287 65.0202C125.287 68.1701 122.724 70.7328 119.574 70.7328C116.424 70.7328 113.861 68.1701 113.861 65.0202C113.861 61.8703 116.424 59.3076 119.574 59.3076Z" fill="#AE0000"/>
<path d="M103.715 50.0247L103.754 52.2693L100.621 57.6949L98.659 58.7829C97.3939 59.4834 96.6082 60.8173 96.6082 62.2637V67.7764C96.6082 69.2221 97.3936 70.556 98.6584 71.2571L100.621 72.3455L103.754 77.7707L103.715 80.0157C103.69 81.4611 104.452 82.8084 105.704 83.5315L110.478 86.2877C111.094 86.6432 111.781 86.8206 112.468 86.8206C113.178 86.8206 113.887 86.6311 114.517 86.2526L116.441 85.0963H122.706L124.631 86.2526C125.87 86.997 127.417 87.0107 128.67 86.2877L133.444 83.5315C134.696 82.8087 135.458 81.4617 135.433 80.0157L135.394 77.7707L138.526 72.3455L140.49 71.2568C141.755 70.5554 142.54 69.2218 142.54 67.7764V62.2637C142.54 60.8176 141.755 59.484 140.49 58.7832L138.526 57.6946L135.394 52.2693L135.433 50.0247C135.458 48.5786 134.696 47.2316 133.444 46.5089L128.67 43.7524C127.418 43.0293 125.87 43.0437 124.631 43.7877L122.706 44.944H116.441L114.517 43.7877C113.278 43.0434 111.73 43.0296 110.478 43.7524L105.703 46.5092C104.452 47.2319 103.69 48.5792 103.715 50.0247ZM108.29 50.2928L112.461 47.8845L114.229 48.9464C114.847 49.3181 115.556 49.5143 116.278 49.5143H122.87C123.592 49.5143 124.3 49.3178 124.92 48.9461L126.687 47.8845L130.858 50.2928L130.822 52.3537C130.809 53.0764 130.994 53.7891 131.354 54.4128L134.65 60.1205C135.011 60.7463 135.535 61.2622 136.167 61.6122L137.97 62.6116V67.4284L136.166 68.4278C135.535 68.7782 135.01 69.2943 134.65 69.9183L131.354 75.6266C130.993 76.2522 130.809 76.9642 130.822 77.6866L130.857 79.7475L126.686 82.1555L124.919 81.094C124.3 80.7222 123.592 80.526 122.87 80.526H116.278C115.556 80.526 114.848 80.7226 114.228 81.0943L112.461 82.1555L108.29 79.7475L108.326 77.6866C108.339 76.9642 108.155 76.2522 107.794 75.6273L104.498 69.9195C104.137 69.2937 103.613 68.7779 102.981 68.4278L101.178 67.4287V62.6119L102.979 61.6138C103.611 61.264 104.137 60.7475 104.497 60.122L107.793 54.4146C108.154 53.7894 108.339 53.0767 108.326 52.354L108.29 50.2928Z" fill="#AE0000"/>
<path d="M36.4265 75.3031C42.0964 75.3031 46.7093 70.6901 46.7093 65.0202C46.7093 59.3503 42.0964 54.7373 36.4265 54.7373C30.7565 54.7373 26.1436 59.3503 26.1436 65.0202C26.1436 70.6901 30.7565 75.3031 36.4265 75.3031ZM36.4265 59.3076C39.5763 59.3076 42.139 61.8703 42.139 65.0202C42.139 68.1701 39.5763 70.7328 36.4265 70.7328C33.2766 70.7328 30.7139 68.1701 30.7139 65.0202C30.7139 61.8703 33.2766 59.3076 36.4265 59.3076Z" fill="#AE0000"/>
<path d="M15.5102 71.2574L17.4739 72.3458L20.6061 77.771L20.5665 80.016C20.5415 81.4617 21.3038 82.809 22.5558 83.5317L27.3296 86.2877C28.581 87.011 30.1291 86.9976 31.3695 86.2529L33.2936 85.0966H39.5583L41.4827 86.2529C42.1128 86.6313 42.8221 86.8209 43.5326 86.8209C44.2194 86.8209 44.9065 86.6435 45.5219 86.2879L50.2958 83.5317C51.548 82.809 52.3104 81.4617 52.2854 80.0157L52.2458 77.771L55.378 72.3458L57.3423 71.2571C58.6064 70.5557 59.3922 69.2221 59.3922 67.7767V62.264C59.3922 60.8179 58.6064 59.4843 57.342 58.7835L55.3783 57.6949L52.2458 52.2696L52.2854 50.025C52.3104 48.5792 51.548 47.2319 50.2961 46.5092L45.5222 43.753C44.2706 43.0293 42.7228 43.0434 41.483 43.788L39.5583 44.9443H33.2936L31.3689 43.7877C30.1291 43.043 28.5816 43.0303 27.3299 43.7527L22.5561 46.5092C21.3038 47.2319 20.5415 48.5792 20.5665 50.0253L20.6061 52.2696L17.4739 57.6949L15.5105 58.7832C14.2457 59.4843 13.46 60.8179 13.46 62.264V67.7767C13.46 69.2224 14.2454 70.556 15.5102 71.2574ZM18.0303 62.6122L19.831 61.6141C20.4629 61.2646 20.9882 60.7487 21.3498 60.1223L24.6463 54.4131C25.007 53.7879 25.191 53.0758 25.1785 52.354L25.1423 50.2937L29.3138 47.8851L31.08 48.9464C31.6989 49.3184 32.4076 49.5149 33.13 49.5149H39.7225C40.4446 49.5149 41.1533 49.3181 41.7718 48.9467L43.539 47.8851L47.7102 50.2937L47.6739 52.3543C47.6614 53.0758 47.8455 53.7879 48.2065 54.4134L51.5029 60.1229C51.8646 60.749 52.3896 61.2646 53.0215 61.6144L54.8222 62.6125V67.4293L53.0197 68.4284C52.3884 68.7782 51.8637 69.2937 51.5026 69.9192L48.2059 75.6294C47.8452 76.2549 47.6614 76.9663 47.6739 77.6878L47.7102 79.7481L43.5387 82.1564L41.7724 81.0955C41.1536 80.7234 40.4449 80.5269 39.7225 80.5269H33.13C32.4079 80.5269 31.6992 80.7237 31.0806 81.0952L29.3138 82.1564L25.1423 79.7481L25.1785 77.6875C25.191 76.9663 25.0073 76.2549 24.646 75.6282L21.3495 69.9186C20.9885 69.2937 20.4641 68.7785 19.8325 68.4284L18.03 67.4293V62.6122H18.0303Z" fill="#AE0000"/>
<path d="M66.2797 116.68C64.6691 115.07 62.1511 114.916 60.3602 116.207L47.8515 96.6671C46.4661 94.5026 43.9409 93.4283 41.422 93.935C38.1022 94.6001 35.9572 97.7341 36.5397 101.07L38.472 112.139C38.6704 113.275 38.2383 114.368 37.3158 115.061C36.3938 115.755 35.2235 115.866 34.1869 115.359C25.3592 111.043 18.9626 103.092 16.6375 93.5453L14.1891 83.4921C13.3545 80.065 10.3003 77.5787 6.76047 77.4456L6.64834 77.4413C2.77455 77.2929 -0.343015 80.6055 0.0305316 84.4638C2.30015 107.867 15.9105 128.629 36.4501 140.053C34.923 141.852 35.0047 144.559 36.7024 146.257L45.7757 155.331C46.2221 155.777 46.8068 156 47.3918 156C47.9765 156 48.5615 155.777 49.0075 155.331L59.1481 145.191C60.0406 144.298 60.0406 142.851 59.1481 141.959C58.2557 141.067 56.8091 141.066 55.9163 141.959L47.3936 150.482L39.9345 143.006L63.0478 119.913L70.5057 127.37L62.3766 135.499C61.4842 136.391 61.4842 137.838 62.3766 138.73C63.2693 139.622 64.7163 139.623 65.6081 138.73L75.3526 128.986C75.7813 128.558 76.022 127.976 76.022 127.37C76.022 126.764 75.7813 126.183 75.3529 125.754L66.2797 116.68ZM4.57952 84.0229C4.47074 82.9001 5.38968 81.958 6.47772 82.0092C6.50819 82.0104 6.62153 82.0144 6.59106 82.0135C8.1209 82.0707 9.38992 83.0997 9.74854 84.5737L12.197 94.6269C14.8444 105.498 22.128 114.551 32.1796 119.465C34.7521 120.723 37.7725 120.436 40.0613 118.715C42.3507 116.995 43.4668 114.174 42.9744 111.353L41.0421 100.284C40.8894 99.4108 41.451 98.5906 42.3196 98.4163C42.9805 98.2847 43.6395 98.5647 44.0021 99.1317L57.0153 119.46L39.7932 136.682C39.5165 136.425 8.23759 121.742 4.57952 84.0229Z" fill="#AE0000"/>
</g>
<defs>
<clipPath id="clip0_301_1868">
<rect width="156" height="156" fill="white"/>
</clipPath>
</defs>
</svg>
