<svg width="138" height="149" viewBox="0 0 138 149" fill="none" xmlns="http://www.w3.org/2000/svg">
<g clip-path="url(#clip0_912_217)">
<path d="M97.4024 16.3274C97.4024 17.3103 97.4024 18.2897 97.359 19.269C97.359 19.6304 97.4964 19.7713 97.8582 19.7569C98.5817 19.7279 99.3053 19.7243 100.029 19.7099H104.424C105.385 19.8933 106.324 20.1742 107.228 20.5483C107.246 20.5996 107.281 20.6434 107.327 20.6723C107.373 20.7012 107.427 20.7135 107.481 20.7073L108.642 21.636C108.641 21.6563 108.644 21.6766 108.652 21.6954C108.66 21.7142 108.671 21.7312 108.686 21.745C108.701 21.7588 108.719 21.7692 108.738 21.7753C108.757 21.7815 108.778 21.7833 108.798 21.7806C108.985 22.1614 109.244 22.5026 109.561 22.7852C109.554 22.8397 109.566 22.8951 109.595 22.9418C109.624 22.9886 109.668 23.0239 109.721 23.0418C109.793 23.4415 109.969 23.8154 110.231 24.1259L110.299 24.4403C110.277 24.7716 110.359 25.1016 110.535 25.3835V27.2663C110.363 27.8888 110.152 28.4996 109.901 29.0948C109.504 29.9865 108.906 30.7739 108.152 31.3953C107.399 32.0167 106.512 32.4551 105.56 32.6761C105.338 32.742 105.119 32.8204 104.905 32.911H89.5954C89.1577 32.911 88.7163 32.9435 88.275 32.9616C87.9732 32.9324 87.6686 32.9631 87.3787 33.0518C87.0888 33.1405 86.8192 33.2854 86.5855 33.4783H86.5421C86.3311 33.5275 86.1327 33.6201 85.9596 33.7501C85.7864 33.8802 85.6423 34.0448 85.5364 34.2336L85.5798 34.2806L85.5364 34.2372C85.3466 34.3419 85.1811 34.4856 85.0507 34.6587C84.9204 34.8319 84.8283 35.0306 84.7803 35.2418V35.2816C84.3918 35.7554 84.2059 36.3631 84.263 36.9728C84.1977 37.1737 84.1977 37.39 84.263 37.5908C84.2073 38.201 84.3945 38.8086 84.7839 39.282V39.3218C84.837 39.5314 84.932 39.7281 85.0632 39.9002C85.1944 40.0722 85.359 40.2159 85.5472 40.3228L85.587 40.2794L85.5472 40.3228C85.8928 40.752 86.3352 41.0933 86.8383 41.3188C87.3413 41.5443 87.8907 41.6476 88.4414 41.6201L94.5553 41.6599C95.0578 41.8417 95.5914 41.9228 96.1253 41.8984L96.6028 41.9526C97.3879 42.2092 98.1657 42.4838 98.9543 42.7187C100.184 43.0801 101.244 43.8029 102.391 44.3341C104.546 45.7973 106.402 47.6565 107.861 49.8126C108.01 50.2667 108.257 50.6825 108.585 51.0304L108.65 51.2219C108.633 51.3112 108.647 51.4036 108.689 51.4839C108.732 51.5641 108.801 51.6273 108.885 51.6628L108.946 51.8471C108.91 52.0567 109.051 52.176 109.178 52.2988L109.236 52.4759C109.223 52.5074 109.218 52.541 109.219 52.5748C109.221 52.6086 109.229 52.6417 109.244 52.672C109.259 52.7023 109.28 52.7291 109.306 52.7507C109.332 52.7723 109.362 52.7883 109.395 52.7975L109.478 53.0975C109.968 54.6864 110.331 56.3117 110.563 57.958L110.527 60.9285C110.323 61.3711 110.243 61.8607 110.296 62.3451C110.213 62.4872 110.19 62.6558 110.231 62.8149C110.143 62.8897 110.08 62.9885 110.048 63.099C110.017 63.2096 110.019 63.3269 110.053 63.4365C110.006 63.5068 109.975 63.5863 109.96 63.6697C109.946 63.7532 109.949 63.8387 109.97 63.9207C109.63 64.8025 109.294 65.6878 108.954 66.5696C108.954 66.631 108.914 66.6925 108.892 66.7503C108.808 66.7876 108.739 66.852 108.695 66.9332C108.652 67.0145 108.637 67.1078 108.653 67.1984L108.588 67.3827C108.259 67.7309 108.012 68.1482 107.865 68.6042L107.839 68.6584C107.695 68.7595 107.55 68.8643 107.564 69.0739C107.334 69.2491 107.159 69.4877 107.062 69.7606C106.955 69.8212 106.862 69.9028 106.788 70.0003C106.714 70.0978 106.661 70.2092 106.631 70.3279C106.551 70.3522 106.48 70.3994 106.427 70.4636C106.373 70.5278 106.34 70.6063 106.331 70.6893C106.212 70.7434 106.106 70.8219 106.019 70.9196C105.932 71.0174 105.867 71.1322 105.828 71.2567C105.484 71.4246 105.206 71.7034 105.039 72.0481C104.914 72.0861 104.798 72.1507 104.699 72.2373C104.6 72.324 104.521 72.4307 104.468 72.5504C104.384 72.5581 104.305 72.5909 104.24 72.6444C104.176 72.698 104.129 72.7697 104.106 72.8503C103.866 72.9115 103.659 73.0647 103.531 73.2768C103.26 73.3776 103.023 73.553 102.847 73.7827C102.637 73.7646 102.532 73.9092 102.427 74.0573L102.377 74.079C101.919 74.2239 101.501 74.4711 101.154 74.8018L100.969 74.8668C100.878 74.8509 100.784 74.8666 100.704 74.9113C100.623 74.956 100.559 75.027 100.524 75.1126L100.34 75.1704L97.6918 76.1642C97.2577 76.1642 97.3698 76.493 97.3698 76.7243C97.3698 79.0841 97.3698 81.4222 97.3698 83.8C97.2864 83.8811 97.2206 83.9785 97.1764 84.086C97.1323 84.1936 97.1107 84.309 97.113 84.4252L96.2628 85.2745C96.1464 85.2722 96.0309 85.2938 95.9232 85.3379C95.8156 85.382 95.7181 85.4478 95.6369 85.531H85.9126C85.8311 85.4484 85.7335 85.3834 85.6259 85.3398C85.5183 85.2963 85.4029 85.2753 85.2868 85.2781L84.5053 84.5806C83.9627 83.2797 84.2702 81.91 84.1906 80.573C84.1906 80.2369 84.158 79.9008 84.1436 79.5647C84.1436 78.813 84.1436 78.0578 84.1978 77.3097C84.2232 76.8508 84.0387 76.7387 83.6082 76.7424C81.2965 76.7604 78.9811 76.7424 76.6658 76.7424C76.3839 76.5662 76.0533 76.4839 75.7216 76.5075L75.4105 76.4424C75.0375 76.1602 74.612 75.9551 74.1588 75.8389L74.1407 75.7702H74.072L72.9143 74.8451C72.6032 74.4621 72.2957 74.0754 71.9846 73.6887V73.6201H71.9158C71.5541 72.6299 71.0838 71.6722 71.015 70.5773C70.9354 69.2582 71.3478 68.0729 71.8218 66.8876C71.8737 66.8681 71.9177 66.832 71.9472 66.785C71.9766 66.738 71.9897 66.6826 71.9846 66.6274C72.2507 66.3973 72.4642 66.1125 72.6104 65.7926C72.8697 65.6517 73.0822 65.4382 73.2218 65.1783C73.544 65.0319 73.8323 64.8202 74.0683 64.5567C74.1227 64.5649 74.1781 64.5528 74.2241 64.5228C74.2701 64.4928 74.3035 64.4471 74.318 64.3941C74.4094 64.4087 74.503 64.3915 74.5834 64.3455C74.6637 64.2994 74.7257 64.2273 74.7593 64.1411L74.9402 64.0833C76.0627 63.7117 77.242 63.5404 78.424 63.5774C79.2452 63.6172 80.0737 63.5774 80.8949 63.5485C82.1936 63.5485 83.4888 63.5882 84.7875 63.5846C87.5623 63.5846 90.3407 63.5593 93.1082 63.5449C93.7685 63.6157 94.4304 63.4264 94.9532 63.0173H94.9966C95.2058 62.9638 95.4023 62.8692 95.5743 62.7389C95.7464 62.6085 95.8907 62.4452 95.9987 62.2584L95.9553 62.2186L95.9951 62.262C96.1821 62.1541 96.3456 62.01 96.4761 61.8381C96.6065 61.6662 96.7013 61.47 96.7548 61.261V61.2176C97.1648 60.6957 97.3532 60.0339 97.2794 59.3746V59.0674C97.3071 58.5173 97.2038 57.9684 96.9781 57.4659C96.7523 56.9633 96.4105 56.5214 95.9806 56.1764L95.9408 56.2234L95.9842 56.18C95.8768 55.9924 95.7327 55.8283 95.5606 55.6973C95.3884 55.5663 95.1917 55.4712 94.9821 55.4175H94.9387C94.4661 55.0287 93.859 54.8417 93.2493 54.8971C91.8418 54.8194 90.4312 54.8194 89.0238 54.8971C87.392 54.839 85.7674 54.6517 84.1653 54.337C84.0988 54.2857 84.0222 54.2489 83.9406 54.2289C83.859 54.209 83.7741 54.2064 83.6914 54.2214L81.1843 53.2565L81.0034 53.2059C80.9663 53.121 80.9023 53.0506 80.8213 53.0055C80.7402 52.9605 80.6466 52.9433 80.5548 52.9565L80.497 52.9312C80.0992 52.591 79.6417 52.3275 79.1476 52.1543L79.1078 52.1326C79.0137 51.9664 78.9016 51.829 78.6881 51.8399C78.5434 51.558 78.2431 51.5002 78.0044 51.352C77.8354 51.0825 77.5806 50.8775 77.2808 50.7702L77.0963 50.6293C77.0493 50.4124 76.872 50.3293 76.6948 50.2679C76.6778 50.1886 76.6373 50.1162 76.5786 50.0601C76.5199 50.0041 76.4457 49.9669 76.3656 49.9535C76.3236 49.8444 76.2585 49.7457 76.1749 49.664C76.0912 49.5823 75.9909 49.5196 75.8808 49.4801C75.473 48.8832 75.0077 48.3277 74.4916 47.8214L74.4627 47.7816C72.934 45.5577 71.8437 43.063 71.2502 40.4312C71.2739 40.3537 71.282 40.2723 71.2739 40.1916C71.2659 40.1109 71.2418 40.0327 71.2031 39.9614C70.9914 38.1366 70.9914 36.2934 71.2031 34.4685L71.2357 34.1469C71.4745 33.3302 71.706 32.5135 71.9592 31.7004C72.5091 29.926 73.4787 28.3648 74.4518 26.8109L74.5748 26.623C75.0749 26.1782 75.5108 25.6662 75.8699 25.1016C75.9793 25.0615 76.0788 24.9985 76.1617 24.9169C76.2447 24.8352 76.3093 24.7368 76.3511 24.6282C76.4318 24.6159 76.507 24.5797 76.567 24.5243C76.627 24.4689 76.669 24.3969 76.6875 24.3174C76.8397 24.2225 76.987 24.12 77.1289 24.0103C78.8523 22.5393 80.8365 21.4043 82.9787 20.6639C83.3405 20.5302 83.818 20.5844 84.0857 20.1905C84.2702 18.904 84.1399 17.6103 84.1617 16.3202C84.1797 15.2071 84.1616 14.0941 84.1363 12.981C84.2838 12.4854 84.4916 12.0096 84.755 11.5644L84.7803 11.5391L86.0428 10.9248H95.4488L96.7114 11.5391L96.7367 11.5644C96.9971 12.0111 97.2047 12.4865 97.3553 12.981C97.3867 14.1013 97.4024 15.2168 97.4024 16.3274ZM87.9964 72.9913C88.1954 73.3526 88.3943 73.714 88.5969 74.0971L88.6223 74.4151C88.568 76.2437 88.5463 78.0722 88.6223 79.9008C88.6223 80.0562 88.5969 80.2116 88.5752 80.3634C88.4848 80.9488 88.6657 81.2018 89.3205 81.1656C90.3624 81.1042 91.4079 81.1367 92.4498 81.1656C92.8115 81.1656 92.9707 81.0753 92.9635 80.685C92.9345 79.178 92.9273 77.6675 92.9164 76.1569C92.9465 75.8737 92.9586 75.5888 92.9526 75.3041C92.7862 73.0093 93.8426 72.3878 95.6369 72.0517C97.3895 71.7833 99.0355 71.0423 100.398 69.9087H100.456L100.485 69.8545C100.673 69.8545 100.76 69.728 100.846 69.5799C101.873 68.9488 102.734 68.0814 103.357 67.0502L103.379 67.0105C103.618 66.9129 103.715 66.6852 103.838 66.4937C105.368 64.2112 106.128 61.5007 106.009 58.7566C105.976 57.9761 106.063 57.1485 105.647 56.4149C105.669 56.334 105.673 56.2493 105.66 56.1665C105.647 56.0837 105.617 56.0046 105.571 55.9343C105.25 54.2677 104.502 52.7127 103.4 51.4207L103.343 51.3809C102.715 50.3522 101.854 49.4856 100.828 48.8513C100.807 48.7725 100.76 48.7031 100.694 48.6546C100.628 48.606 100.548 48.5811 100.467 48.5839L100.438 48.5333H100.38C98.0174 46.6903 95.315 46.0037 92.3593 46.0976L87.7866 46.0831C85.8317 45.7864 83.9972 44.9546 82.4867 43.68C82.4652 43.6034 82.4248 43.5335 82.3692 43.4767C82.3135 43.4198 82.2444 43.3779 82.1683 43.3548L81.1083 41.9996L81.0866 41.9635C80.4174 40.5866 79.8494 39.1881 79.7843 37.6269C79.7083 35.8201 80.2763 34.1686 81.0866 32.5857L81.1047 32.5496L82.1647 31.1908C82.2414 31.1691 82.3113 31.1282 82.3676 31.0719C82.424 31.0156 82.465 30.9458 82.4867 30.8692C82.5974 30.8073 82.7049 30.7397 82.8086 30.6668C84.5092 29.1911 86.7076 28.4161 88.9587 28.4986C89.7076 28.4986 90.46 28.4769 91.2089 28.4624C93.4193 28.4624 95.6297 28.5022 97.8401 28.4986C99.9203 28.4986 102 28.4696 104.084 28.4552C104.631 28.4258 105.146 28.1888 105.523 27.7927C105.9 27.3965 106.112 26.8712 106.114 26.3244C106.117 25.7775 105.91 25.2504 105.535 24.8511C105.161 24.4518 104.649 24.2105 104.102 24.1765C101.071 24.0825 98.0427 24.1078 95.0147 24.1765C93.5025 23.7428 93.1118 23.2405 92.9237 21.4662C92.9237 19.5906 92.949 17.7151 92.9779 15.8359C92.9779 15.442 92.8115 15.3553 92.4606 15.3589C91.3355 15.3589 90.214 15.3806 89.0925 15.3589C88.6476 15.3589 88.5788 15.5577 88.5825 15.9299C88.6042 18.0981 88.6078 20.2664 88.615 22.4347C88.2532 23.7248 87.2982 24.209 86.0428 24.4439C84.0674 24.7623 82.2205 25.626 80.7104 26.9374C79.6817 27.565 78.8213 28.4332 78.2033 29.467L78.178 29.5104C77.0677 30.794 76.3186 32.3491 76.0074 34.0168L75.9495 34.3456C75.8656 34.472 75.7999 34.6094 75.7542 34.754C75.3558 36.8036 75.4538 38.9186 76.04 40.9227C76.4922 42.4332 77.0602 43.9077 78.1744 45.093L78.1961 45.1363C78.8245 46.1645 79.6857 47.0309 80.7104 47.666C81.9299 48.7418 83.4002 49.4948 84.9865 49.8559C85.056 49.902 85.1344 49.9331 85.2165 49.9474C85.2987 49.9617 85.383 49.9589 85.464 49.939C86.4001 50.3099 87.4022 50.4858 88.4088 50.4558C90.6662 50.51 92.9309 50.286 95.1739 50.6907L95.4922 50.7413C96.7762 51.2689 97.9794 51.9745 99.0665 52.8373C99.0875 52.9142 99.1283 52.9843 99.1848 53.0407C99.2413 53.0971 99.3114 53.1379 99.3885 53.1589L100.448 54.5177V54.5538L101.465 56.7221L101.519 57.0401C101.53 57.5193 101.617 57.9937 101.776 58.4458V60.0287C101.63 60.4308 101.553 60.8548 101.548 61.2827L101.498 61.5862C101.406 61.7405 101.327 61.9011 101.259 62.0668C100.647 63.8992 99.4414 65.4758 97.8329 66.5479C97.0623 67.09 96.1579 67.3502 95.3222 67.7549L95.0183 67.8055C94.591 67.8087 94.1676 67.8857 93.7666 68.0332H78.9341C78.4421 68.0332 77.9501 68.0621 77.4545 68.0802C77.1937 68.0806 76.9355 68.1324 76.6947 68.2326C76.4539 68.3327 76.2352 68.4792 76.0512 68.6638C75.8671 68.8484 75.7212 69.0673 75.6218 69.3082C75.5224 69.5491 75.4715 69.8072 75.472 70.0677V70.3713C75.4729 70.8969 75.6819 71.4008 76.0533 71.7731C76.4246 72.1454 76.9283 72.356 77.4545 72.3589L86.8604 72.3986L87.9675 72.9985L87.9964 72.9913Z" fill="#AE0000"/>
<path d="M85.3665 140.904L85.3268 141.229C84.734 143.317 83.5034 145.168 81.8067 146.523C80.62 147.206 79.3507 147.734 78.0299 148.095C65.8889 148.095 53.748 148.074 41.6071 148.139C39.5575 148.121 37.523 147.786 35.5764 147.145C32.6823 146.252 29.7881 145.447 26.894 144.594C26.4635 144.467 26.3224 144.623 26.3477 145.042C26.3622 145.328 26.3622 145.615 26.3477 145.902C26.3514 146.196 26.2951 146.488 26.1824 146.759C26.0697 147.031 25.9028 147.277 25.692 147.482C25.4812 147.687 25.2308 147.847 24.9561 147.953C24.6813 148.058 24.388 148.107 24.0939 148.095C16.8368 148.095 9.57855 148.095 2.31907 148.095C0.871996 148.095 0.0109863 147.159 0.0109863 145.656V107.314C0.0109863 103.895 0.0109863 100.478 0.0109863 97.0618C0.202723 96.7366 0.394467 96.4113 0.582586 96.0861L0.615144 96.0572C1.33783 95.6097 2.18378 95.4022 3.03175 95.4645C4.21835 95.5006 5.40857 95.4645 6.59517 95.4356C8.46551 95.4356 10.3395 95.4753 12.2134 95.4717C16.2483 95.4717 20.2809 95.4621 24.3109 95.4428C26.4816 95.8982 26.4273 97.6111 26.3224 99.4541C29.8026 97.1449 32.4218 94.5177 33.489 90.5606C34.7371 85.9386 36.1444 81.36 37.4685 76.756C37.9641 75.0106 38.5538 73.2904 38.9155 71.5052L38.977 71.18C39.4381 70.0744 39.7824 68.9238 40.0044 67.7469L40.0623 67.418C40.1431 67.3204 40.21 67.2122 40.2613 67.0964C40.6629 65.7087 41.0898 64.3247 41.437 62.9225C41.7409 61.7011 42.2076 60.6639 43.5823 60.3604H44.2299C44.3059 60.3784 44.3782 60.4073 44.4542 60.4182C49.5189 60.9169 53.2813 63.3562 55.546 67.989C56.1429 69.2141 56.3527 70.5512 56.8122 71.816C56.7865 71.895 56.7774 71.9785 56.7855 72.0612C56.7936 72.1439 56.8187 72.2241 56.8592 72.2966C56.9424 73.2326 57.0256 74.1722 57.1125 75.1081V76.073C57.0039 76.7452 56.7724 77.4065 56.8556 78.104C56.8176 78.1776 56.7949 78.258 56.7887 78.3406C56.7824 78.4232 56.7929 78.5061 56.8194 78.5846C56.6179 79.1319 56.5364 79.716 56.5807 80.2975C56.4901 80.501 56.4722 80.7293 56.53 80.9444C56.2476 82.1178 56.0816 83.3161 56.0344 84.522L56.0091 84.8436C55.8246 85.4511 55.7414 86.0848 55.7631 86.7192C55.6773 86.9201 55.6608 87.1438 55.716 87.3552C55.5128 87.8464 55.4345 88.3803 55.4881 88.9091C55.3976 89.1139 55.3797 89.3433 55.4375 89.5596C55.2998 89.893 55.2202 90.2474 55.2023 90.6076C55.1191 90.9943 55.2928 91.1027 55.6618 91.0991C57.2138 91.0738 58.7693 91.0665 60.3213 91.0521C60.6071 91.0521 60.8929 91.0919 61.1787 91.0919H77.2051C77.9611 91.0919 78.7136 91.0629 79.4697 91.0521C81.4594 91.1966 83.4709 90.9292 85.4534 91.2978L85.7753 91.3556C87.1219 91.8614 88.3796 92.5774 89.5015 93.4769C89.5224 93.5544 89.563 93.6251 89.6195 93.6821C89.6759 93.7391 89.7462 93.7805 89.8235 93.8022C90.7174 94.9254 91.4325 96.1797 91.9435 97.5207L92.0014 97.846L92.2401 99.5625V100.061C91.9435 103.01 90.7533 105.453 88.21 107.119C87.8917 107.332 87.8989 107.527 88.1232 107.809C88.5755 108.414 88.9476 109.075 89.2302 109.775C89.8886 111.286 89.8452 112.872 89.7946 114.473L89.7548 114.795C89.0855 117.075 87.9459 119.026 85.9128 120.363C85.6234 120.555 85.75 120.725 85.9128 120.938C86.3565 121.545 86.7292 122.201 87.0234 122.893C87.7 124.414 87.6746 126.019 87.6131 127.627L87.5733 127.952C86.9077 130.233 85.7645 132.18 83.7313 133.525C83.3696 133.763 83.6409 133.973 83.7784 134.161C84.3674 134.984 84.825 135.893 85.135 136.857C85.5257 138.168 85.4208 139.534 85.3665 140.904ZM70.8126 108.019C70.6064 107.6 70.4002 107.18 70.1976 106.758V106.114C70.3168 105.657 70.5561 105.24 70.8905 104.906C71.2251 104.572 71.6427 104.333 72.1005 104.213C73.8659 104.213 75.6314 104.242 77.3968 104.239C79.5023 104.239 81.6041 104.206 83.706 104.188C85.8079 104.17 87.8193 102.132 87.7361 100.011V99.7035C87.8193 97.5858 85.8296 95.5223 83.706 95.5259C82.4556 95.4464 81.2013 95.4464 79.9509 95.5259C78.142 95.4501 76.3332 95.4573 74.5063 95.5259C74.2205 95.5259 73.9347 95.4898 73.6489 95.4898H56.5083C56.1176 95.4898 55.7269 95.5187 55.3362 95.5332C54.692 95.4898 54.046 95.479 53.4007 95.5006C51.9934 95.6127 50.9805 95.1212 50.4523 93.7696V92.6602C50.6487 92.1079 50.7299 91.5213 50.6911 90.9364C50.7844 90.6847 50.8057 90.4119 50.7526 90.1487C50.9568 89.7101 51.0309 89.2222 50.966 88.7429C51.0717 88.4377 51.0991 88.1109 51.0456 87.7925C51.3272 86.6697 51.4873 85.5199 51.5231 84.363L51.5521 83.8896C51.7562 83.3391 51.8401 82.7514 51.7981 82.1658C51.881 81.9654 51.8963 81.7433 51.8415 81.5334C52.0502 81.0412 52.1286 80.5036 52.0694 79.9723C52.1665 79.7189 52.1891 79.443 52.1345 79.1773C52.4963 78.0606 52.4963 76.897 52.6157 75.7478V75.4406C52.7749 74.4179 52.5506 73.4133 52.3444 72.434C51.9826 70.7644 51.5051 69.1237 50.2135 67.8806C49.9816 67.3954 49.5894 67.0049 49.1029 66.7748C49.0814 66.6944 49.0346 66.6229 48.9695 66.5709C48.9045 66.5189 48.8244 66.489 48.7411 66.4857L48.6941 66.4568C47.7644 65.734 46.7948 65.1233 45.5576 65.1558L45.5323 65.1811C45.0692 65.9798 44.9353 66.8796 44.74 67.7613L44.6857 68.0758C44.59 68.1461 44.5185 68.2443 44.4809 68.3569C44.4433 68.4695 44.4416 68.5909 44.4759 68.7045L44.4108 69.0298C44.0425 69.8204 43.7914 70.6604 43.6655 71.5233L43.604 71.8413C43.4995 71.9385 43.4224 72.0615 43.3805 72.1978C43.3386 72.3342 43.3333 72.4792 43.3653 72.6183L43.2929 72.9363C42.8311 74.0441 42.4914 75.1989 42.28 76.3802L42.2112 76.709C42.052 76.7885 42.0303 76.9512 41.9906 77.0993C41.0897 80.2505 40.1817 83.3945 39.299 86.5529C38.8251 88.2767 38.2137 89.9643 37.8881 91.7279L37.8194 92.0495C37.6059 92.1724 37.6168 92.4109 37.5697 92.5916C37.3385 93.6553 36.9103 94.6664 36.3072 95.5729C35.6271 96.5739 34.9542 97.5786 34.2777 98.5832C34.0077 98.7272 33.8031 98.969 33.7061 99.259C33.6506 99.2624 33.5983 99.2859 33.5589 99.3252C33.5196 99.3645 33.496 99.4167 33.4926 99.4722C32.9496 99.905 32.458 100.398 32.0275 100.943H31.9768V100.99C31.6933 101.099 31.4549 101.3 31.3003 101.561C30.1105 102.35 28.8733 103.066 27.5958 103.704L27.2702 103.78C27.1566 103.753 27.0376 103.759 26.9273 103.797C26.8171 103.836 26.7201 103.905 26.648 103.997C26.1415 103.997 26.3332 104.398 26.3332 104.633C26.3188 106.772 26.3188 108.913 26.3332 111.054C26.3332 113.714 26.3586 116.374 26.373 119.037C26.3043 120.844 26.3007 122.651 26.373 124.479C26.3542 124.528 26.342 124.579 26.3369 124.631C26.3369 129.568 26.3369 134.506 26.3369 139.448C26.3369 139.607 26.25 139.831 26.5358 139.87C26.7122 140.025 26.9296 140.125 27.1617 140.16C29.3576 140.781 31.5463 141.428 33.7495 142.021C35.1459 142.382 36.5098 142.899 37.9387 143.148L38.2643 143.213C38.7353 143.495 39.2681 143.658 39.8163 143.687C43.7958 143.773 47.7535 143.766 51.7221 143.687C53.4875 143.766 55.2494 143.763 57.0148 143.687C57.2753 143.687 57.5321 143.723 57.7926 143.723H75.5554C75.9714 143.723 76.3875 143.694 76.8035 143.679C77.9431 143.788 78.88 143.318 79.6976 142.595C80.3721 142.013 80.8506 141.237 81.068 140.373C81.2855 139.509 81.2315 138.599 80.9132 137.767C80.3163 136.181 78.6955 134.999 77.1182 135.003C73.9817 134.902 70.8452 134.949 67.7123 134.977L66.4497 134.363L66.428 134.338C66.4119 134.263 66.3851 134.191 66.3484 134.125C66.062 133.803 65.885 133.399 65.8428 132.97C65.8006 132.542 65.8952 132.111 66.1132 131.74C66.3097 131.357 66.6145 131.041 66.9896 130.831C67.3647 130.621 67.7935 130.526 68.2224 130.558C68.8916 130.558 69.5645 130.533 70.2374 130.518C73.2582 130.579 76.2789 130.598 79.2816 130.518C81.416 130.518 83.4094 128.473 83.3298 126.341V126.033C83.413 123.912 81.4233 121.849 79.2997 121.856C78.9926 121.785 78.6734 121.785 78.3663 121.856C76.5358 121.784 74.7052 121.787 72.8747 121.856H69.8901L68.6275 121.242L68.6022 121.216L67.9872 119.959V119.312C68.1898 118.893 68.396 118.473 68.5986 118.051L68.6275 118.025L69.8865 117.411L77.8888 117.393C78.9741 117.393 80.0594 117.425 81.1664 117.436C82.2449 117.448 83.2878 117.051 84.0859 116.327C84.7573 115.741 85.2321 114.963 85.4457 114.099C85.6593 113.235 85.6013 112.326 85.2797 111.495C84.7986 110.22 83.4311 108.731 81.4956 108.723C78.3591 108.626 75.2189 108.673 72.0896 108.702L70.8307 108.087L70.8126 108.019ZM21.9016 129.438C21.9703 127.631 21.9775 125.798 21.9016 123.977C21.9016 123.666 21.945 123.356 21.945 123.045C21.945 117.839 21.945 112.631 21.945 107.422C21.945 106.515 21.9197 105.616 21.9052 104.694C21.9052 103.249 21.9269 101.803 21.9522 100.358C21.9522 100.036 21.8582 99.8625 21.5072 99.895C21.254 99.9167 20.9935 99.9239 20.7367 99.9384C20.6608 99.919 20.5833 99.9069 20.5051 99.9022C15.3391 99.9022 10.173 99.9022 5.007 99.8841C4.43179 99.8841 4.38476 100.126 4.38838 100.585C4.40647 103.035 4.38838 105.485 4.38838 107.939C4.38838 110.7 4.4137 113.461 4.42817 116.226C4.35944 118.032 4.3522 119.839 4.42817 121.668C4.42817 121.979 4.38476 122.29 4.38476 122.6C4.38476 127.761 4.38476 132.921 4.38476 138.082C4.38476 139.043 4.41009 140.004 4.42456 140.973C4.42456 141.746 4.40285 142.523 4.37753 143.3C4.37753 143.632 4.50053 143.763 4.83336 143.755C5.76672 143.73 6.69646 143.723 7.62982 143.708C12.246 143.708 16.8633 143.724 21.4819 143.755C21.9812 143.755 21.9341 143.459 21.9341 143.141C21.9341 141.005 21.9341 138.866 21.9341 136.727C21.945 134.273 21.916 131.848 21.9016 129.438Z" fill="#AE0000"/>
<path d="M121.847 11.7557L122.071 11.9256L126.496 16.3633C126.842 16.9406 127.282 17.456 127.798 17.8883L127.921 18.0618C128.199 18.571 128.555 19.0333 128.977 19.4314L129.003 19.4675C129.127 19.8336 129.367 20.1494 129.687 20.3673L129.81 20.5661C130.078 21.1573 130.445 21.6986 130.895 22.167C130.934 22.2915 130.983 22.4125 131.043 22.5284C132.648 25.0845 134.015 27.782 135.128 30.5871C135.648 31.9386 136.126 33.3082 136.622 34.6706L136.68 34.9886C136.832 35.9471 137.08 36.8878 137.421 37.7965C137.399 37.8773 137.395 37.9617 137.407 38.0444C137.42 38.1271 137.449 38.2064 137.494 38.2772C137.466 38.4399 137.472 38.6065 137.511 38.7669C137.55 38.9272 137.622 39.0778 137.721 39.2095C137.673 39.3697 137.69 39.5424 137.768 39.6902C137.727 39.8375 137.723 39.993 137.758 40.1422C137.793 40.2913 137.865 40.4292 137.967 40.543C137.967 45.3927 138.036 50.246 137.967 55.0956C137.942 57.1302 137.327 59.0997 136.788 61.0547C134.995 67.5417 131.867 73.5835 127.603 78.7937C123.339 84.004 118.033 88.2679 112.025 91.3128C111.841 91.4068 111.663 91.5224 111.49 91.6308C110.775 91.8593 110.091 92.1775 109.456 92.5777L108.99 92.7511C108.178 92.9891 107.392 93.3062 106.642 93.6979C106.557 93.6882 106.472 93.6957 106.391 93.72C106.309 93.7442 106.233 93.7846 106.168 93.8389C106.02 93.7991 105.908 93.8389 105.853 93.987L105.546 94.0701C105.429 94.0389 105.306 94.0436 105.193 94.0836C105.079 94.1236 104.98 94.197 104.909 94.2942L104.605 94.3556C104.107 94.3942 103.625 94.5489 103.198 94.8074C102.979 94.7763 102.755 94.8209 102.565 94.9338C102.481 94.8954 102.385 94.8905 102.298 94.92C102.211 94.9496 102.138 95.0114 102.094 95.0928L101.628 95.1796C101.488 95.1542 101.344 95.1609 101.206 95.1991C101.069 95.2373 100.942 95.3059 100.836 95.4L100.372 95.4578C100.143 95.421 99.9084 95.4511 99.696 95.5445C98.6686 95.8192 97.6737 95.8047 96.7584 95.1832L96.5124 94.923C95.5971 92.9029 96.2556 91.6923 98.4479 91.2586C99.0991 91.1285 99.79 91.1105 100.38 90.7419L100.684 90.6985C100.794 90.729 100.912 90.7253 101.02 90.6879C101.129 90.6505 101.223 90.5811 101.291 90.4889C102.42 90.3949 103.462 89.9541 104.5 89.5746C113.153 86.4899 120.611 80.7592 125.816 73.197C126.901 71.6467 127.961 70.0747 128.666 68.3004C128.753 68.2659 128.825 68.2023 128.87 68.1205C128.915 68.0387 128.93 67.9439 128.912 67.8522C128.989 67.7954 129.051 67.7218 129.094 67.6373C129.137 67.5527 129.16 67.4594 129.162 67.3644C129.274 67.2307 129.401 67.1078 129.379 66.9127C129.473 66.8801 129.48 66.8115 129.451 66.732C129.578 66.6091 129.708 66.4862 129.679 66.2839L129.864 65.8249C130.03 65.7671 130.037 65.6442 130.001 65.5033L130.059 65.3154C130.367 65.0877 130.381 64.73 130.464 64.4047C130.528 64.3456 130.576 64.2709 130.603 64.1879C130.629 64.105 130.634 64.0166 130.616 63.9313C130.649 63.9239 130.679 63.9095 130.706 63.8891C130.732 63.8686 130.753 63.8427 130.769 63.813C130.784 63.7834 130.792 63.7508 130.793 63.7176C130.795 63.6843 130.788 63.6512 130.775 63.6205C130.832 63.5559 130.874 63.4797 130.897 63.3973C130.921 63.3149 130.926 63.2282 130.913 63.1435C131.26 62.572 131.483 61.9344 131.568 61.2716C131.701 61.0937 131.76 60.8705 131.731 60.65C131.762 60.6405 131.791 60.6241 131.816 60.602C131.84 60.58 131.859 60.5528 131.872 60.5224C131.885 60.4921 131.891 60.4592 131.89 60.4263C131.888 60.3934 131.88 60.3612 131.864 60.332C131.981 60.1403 132.027 59.9142 131.995 59.6924C132.076 59.6517 132.139 59.5819 132.171 59.4968C132.204 59.4118 132.202 59.3177 132.168 59.2334L132.212 58.9299C132.639 58.0011 132.729 56.9856 132.899 55.9991C133.293 53.6501 133.659 51.3012 133.55 48.898C133.623 48.4844 133.623 48.0613 133.55 47.6477C133.642 46.3872 133.559 45.12 133.304 43.8821L133.283 43.4159C133.364 43.0448 133.299 42.6565 133.102 42.3318C133.147 42.01 133.11 41.6822 132.997 41.3778C133.038 41.2437 133.045 41.1013 133.015 40.9641C132.986 40.8269 132.923 40.6993 132.83 40.5936C132.863 40.2744 132.813 39.9522 132.686 39.6576C132.722 39.5474 132.726 39.429 132.696 39.3168C132.667 39.2045 132.605 39.1033 132.519 39.0252L132.454 38.5663C132.481 38.4243 132.475 38.2781 132.436 38.139C132.397 37.9998 132.326 37.8715 132.23 37.764L132.186 37.4641C132.221 37.353 132.22 37.2339 132.183 37.1236C132.146 37.0133 132.075 36.9174 131.98 36.8497C132.001 36.7681 132.005 36.6829 131.99 36.5999C131.975 36.5169 131.942 36.4381 131.893 36.3691C131.931 36.284 131.934 36.1876 131.903 36.1001C131.871 36.0126 131.807 35.9407 131.723 35.8993C131.698 35.7945 131.676 35.6933 131.651 35.5885C131.684 35.4722 131.68 35.3485 131.641 35.2342C131.602 35.1198 131.528 35.0203 131.43 34.9489L131.365 34.6489C131.016 33.2638 130.493 31.9282 129.81 30.6738C129.817 30.6629 129.822 30.6504 129.823 30.6373C129.824 30.6242 129.822 30.6109 129.817 30.5987C129.812 30.5865 129.804 30.5758 129.794 30.5675C129.784 30.5591 129.772 30.5534 129.759 30.5509C129.79 30.4613 129.787 30.3634 129.751 30.2756C129.715 30.1878 129.649 30.1161 129.564 30.0739C129.447 29.567 129.223 29.0912 128.905 28.679C128.916 28.5918 128.899 28.5033 128.856 28.4266C128.813 28.3499 128.746 28.2889 128.666 28.2526L128.601 28.0719C128.458 27.5698 128.199 27.1082 127.845 26.724V26.6842L127.813 26.6625C127.826 26.5704 127.807 26.4764 127.76 26.3963C127.713 26.3161 127.639 26.2545 127.552 26.2216V26.1855C127.559 26.0924 127.537 25.9995 127.489 25.9193C127.441 25.8392 127.37 25.7757 127.284 25.7374C127.284 25.6543 127.284 25.5856 127.194 25.5639C127.064 25.1212 126.814 24.7234 126.47 24.4148C126.492 24.2052 126.362 24.0931 126.203 23.9992V23.9667C126.173 23.8171 126.113 23.6755 126.025 23.551C125.937 23.4264 125.824 23.3218 125.693 23.2439L125.667 23.1969C125.669 23.1052 125.641 23.0153 125.589 22.9401C125.536 22.8648 125.461 22.8081 125.374 22.7777L125.349 22.7271C125.349 22.5211 125.204 22.4163 125.06 22.3115C125.058 22.2602 125.038 22.2111 125.003 22.1728C124.969 22.1346 124.922 22.1095 124.871 22.1019C124.874 22.0194 124.848 21.9385 124.798 21.8728C124.748 21.807 124.677 21.7604 124.596 21.7406C124.476 21.3761 124.235 21.0637 123.913 20.8552L123.768 20.689C123.775 20.6037 123.75 20.5188 123.697 20.4517C123.644 20.3845 123.567 20.3402 123.482 20.3276C123.48 20.2373 123.448 20.1503 123.39 20.0808C123.332 20.0112 123.252 19.9632 123.164 19.9445C123.168 19.9177 123.166 19.8903 123.159 19.8642C123.151 19.8381 123.138 19.814 123.12 19.7937C123.102 19.7733 123.08 19.7571 123.055 19.7464C123.03 19.7356 123.003 19.7304 122.976 19.7313C122.977 19.6436 122.946 19.5586 122.888 19.4921C122.831 19.4256 122.752 19.3822 122.665 19.3699C122.64 19.2678 122.592 19.1727 122.525 19.0919C122.458 19.0111 122.373 18.9467 122.278 18.9038C121.392 17.7744 120.37 16.7585 119.235 15.879C119.174 15.7502 119.087 15.6347 118.981 15.5392C118.875 15.4437 118.751 15.37 118.616 15.3225C118.56 15.197 118.477 15.0851 118.374 14.9946C118.27 14.9042 118.148 14.8373 118.016 14.7985L117.973 14.8455L118.016 14.7985C118.006 14.7124 117.962 14.6338 117.895 14.5796C117.827 14.5255 117.74 14.5003 117.654 14.5094C117.593 14.3886 117.507 14.2817 117.402 14.1953C117.298 14.1089 117.177 14.0448 117.046 14.0071C116.858 13.7162 116.574 13.5002 116.243 13.3964C116.227 13.3141 116.182 13.2405 116.115 13.1898C116.048 13.1391 115.965 13.1149 115.881 13.1217C115.873 13.0706 115.847 13.0239 115.808 12.9896C115.769 12.9554 115.72 12.9357 115.668 12.9338C115.538 12.764 115.411 12.5724 115.158 12.5905L115.118 12.6519L115.165 12.5941C115.143 12.5121 115.093 12.4403 115.024 12.3914C114.954 12.3425 114.87 12.3196 114.785 12.3267L114.735 12.3014C114.657 12.1705 114.552 12.0574 114.427 11.9696C114.303 11.8818 114.161 11.8212 114.011 11.7919H113.975C113.881 11.6365 113.776 11.4955 113.563 11.5172C113.246 11.1833 112.85 10.9347 112.412 10.7945C112.387 10.6969 112.322 10.6861 112.238 10.7041C112.199 10.6199 112.135 10.5495 112.055 10.5018C111.975 10.4542 111.883 10.4315 111.79 10.4367H111.75C111.718 10.3503 111.658 10.2771 111.579 10.2292C111.5 10.1813 111.408 10.1615 111.316 10.1729L111.291 10.1404H111.251C110.864 9.79019 110.403 9.53198 109.901 9.3851L109.721 9.32005C109.684 9.23559 109.621 9.16575 109.54 9.12182C109.459 9.07789 109.366 9.06242 109.276 9.07793C109.178 8.9703 109.06 8.88298 108.928 8.82098C108.797 8.75897 108.654 8.72348 108.509 8.71655C106.875 7.82648 105.141 7.13494 103.343 6.65671L103.035 6.59166C102.965 6.49305 102.867 6.41831 102.753 6.37759C102.639 6.33686 102.515 6.33211 102.398 6.36399L102.091 6.29171C102.049 6.209 101.977 6.14561 101.889 6.11467C101.801 6.08373 101.705 6.0876 101.621 6.12548C101.551 6.07608 101.472 6.04267 101.388 6.02767C101.304 6.01267 101.218 6.01646 101.136 6.03875C101.068 5.94415 100.972 5.87332 100.862 5.83634C100.751 5.79935 100.632 5.79811 100.521 5.83277L100.221 5.7894C100.113 5.69416 99.985 5.62427 99.8467 5.58487C99.7083 5.54547 99.5629 5.53757 99.421 5.56174L98.958 5.50391C98.8781 5.42156 98.7775 5.36229 98.6666 5.33239C98.5558 5.30249 98.439 5.30307 98.3285 5.33407C98.0332 5.20396 97.7081 5.15649 97.3879 5.19674C97.2834 5.10332 97.1569 5.03804 97.0202 5.00705C96.8834 4.97607 96.7411 4.98041 96.6065 5.01967C96.2564 4.90757 95.8875 4.86581 95.5212 4.8968C95.386 4.80376 95.232 4.74161 95.07 4.71475C94.9081 4.6879 94.7422 4.697 94.5842 4.74141C94.3342 4.66048 94.0675 4.64554 93.81 4.69805C93.6123 4.64517 93.4118 4.60295 93.2095 4.57156C90.2321 4.2906 87.2321 4.3573 84.2702 4.77032C82.9968 4.92933 81.6908 5.0016 80.4753 5.49307C80.3977 5.47 80.3162 5.46322 80.2358 5.47317C80.1555 5.48312 80.0781 5.50958 80.0086 5.55089C79.8667 5.52592 79.7211 5.53344 79.5826 5.57288C79.4441 5.61232 79.3164 5.68264 79.2091 5.77856L78.9088 5.82192C78.7243 5.78578 78.547 5.76411 78.4385 5.96648C78.2191 5.95076 78.0004 6.00382 77.8126 6.11825C77.726 6.08831 77.6316 6.09003 77.5461 6.12312C77.4607 6.1562 77.3897 6.21851 77.346 6.29894C77.2365 6.27756 77.1238 6.27972 77.0152 6.30527C76.9067 6.33081 76.8048 6.37917 76.7165 6.44711C76.6869 6.4325 76.6545 6.42439 76.6215 6.42333C76.5884 6.42226 76.5556 6.42826 76.5251 6.44093C76.4946 6.45359 76.4672 6.47262 76.4446 6.49675C76.4221 6.52088 76.405 6.54954 76.3945 6.58082L76.0906 6.64225C76.0054 6.61123 75.9116 6.61333 75.8278 6.64814C75.7441 6.68294 75.6765 6.74791 75.6384 6.83017L75.3056 6.90967C75.2172 6.87635 75.1193 6.87886 75.0328 6.91668C74.9463 6.95449 74.878 7.0246 74.8425 7.11204C74.7585 7.09687 74.6722 7.10034 74.5897 7.1222C74.5071 7.14405 74.4304 7.18377 74.365 7.23852C74.2785 7.22965 74.1911 7.24368 74.1117 7.2792C74.0324 7.31472 73.9637 7.37049 73.9128 7.44089L73.7319 7.4951C73.6999 7.48403 73.6659 7.4797 73.6321 7.48236C73.5983 7.48502 73.5655 7.49463 73.5356 7.51058C73.5057 7.52652 73.4794 7.54847 73.4584 7.57503C73.4374 7.6016 73.4221 7.63221 73.4135 7.66495L73.1133 7.74084C73.0273 7.71658 72.9354 7.72494 72.8553 7.7643C72.7751 7.80366 72.7124 7.87125 72.6791 7.95405L72.4838 8.00825C72.3934 7.99067 72.2998 8.00436 72.2182 8.04706C72.1367 8.08975 72.0721 8.15891 72.0352 8.24315L71.8543 8.29374C71.8233 8.27944 71.7894 8.27218 71.7553 8.27248C71.7211 8.27279 71.6874 8.28065 71.6566 8.2955C71.6258 8.31036 71.5987 8.33184 71.5772 8.3584C71.5557 8.38497 71.5404 8.41595 71.5323 8.44913C71.0239 8.56387 70.5464 8.78699 70.1323 9.10322C70.0421 9.08679 69.9489 9.10144 69.8681 9.14476C69.7872 9.18809 69.7235 9.25753 69.6873 9.34173C69.5857 9.35058 69.4858 9.3737 69.3907 9.4104C63.0025 12.7422 57.539 17.6014 53.4874 23.5547C52.4636 25.0508 51.4397 26.5541 50.7596 28.2526C50.6736 28.2869 50.6021 28.35 50.5572 28.431C50.5124 28.512 50.497 28.606 50.5136 28.6971C50.4369 28.7534 50.3743 28.8268 50.331 28.9115C50.2876 28.9962 50.2647 29.0898 50.264 29.1849C50.1519 29.3186 50.0252 29.4415 50.0506 29.6367C49.8209 29.9057 49.6795 30.2387 49.6454 30.5907C49.5593 30.6268 49.4892 30.6928 49.448 30.7765C49.4068 30.8601 49.3972 30.9559 49.4211 31.046L49.3632 31.2376C48.9508 31.7254 48.8278 32.3217 48.6397 32.9288C48.5936 32.97 48.561 33.0241 48.5461 33.084C48.5313 33.144 48.5349 33.207 48.5565 33.2649C48.4603 33.3288 48.386 33.4204 48.3433 33.5276C48.3007 33.6348 48.2917 33.7524 48.3177 33.8648L48.2272 34.1936C48.1445 34.233 48.0798 34.3023 48.0462 34.3875C48.0127 34.4727 48.0127 34.5674 48.0464 34.6526L47.9776 34.9525C47.9463 34.9629 47.9175 34.98 47.8934 35.0025C47.8693 35.0251 47.8505 35.0526 47.8381 35.0832C47.8257 35.1138 47.8201 35.1467 47.8217 35.1797C47.8233 35.2127 47.8321 35.2449 47.8474 35.2741C47.7142 35.4536 47.6559 35.6777 47.6846 35.8993C47.6009 35.9413 47.5368 36.0142 47.5057 36.1025C47.4747 36.1908 47.4792 36.2876 47.5182 36.3727C47.4048 36.5594 47.3517 36.7764 47.3662 36.9943C47.2034 37.0557 47.2071 37.1786 47.2469 37.3123L47.2034 37.6195C47.0036 37.9005 46.9147 38.2454 46.9538 38.588L46.9032 38.9493C46.5595 39.4155 46.6174 39.9901 46.5414 40.5141C46.1362 42.8703 45.7781 45.2373 45.8758 47.6404L45.8106 48.8872C45.7157 48.962 45.6392 49.0576 45.5871 49.1666C45.5351 49.2757 45.5088 49.3952 45.5104 49.516L44.8845 50.1412C44.7636 50.1396 44.6439 50.1658 44.5348 50.2179C44.4256 50.2699 44.3299 50.3463 44.255 50.4411H43.0106C42.9359 50.3454 42.8396 50.2686 42.7296 50.2171C42.6196 50.1656 42.4989 50.1408 42.3775 50.1448C42.3454 50.0574 42.2929 49.9791 42.2243 49.9162C42.1557 49.8533 42.073 49.8078 41.9831 49.7834C41.5854 49.1189 41.3916 48.3525 41.426 47.579C41.4079 46.1335 41.6793 44.688 41.6539 43.2425C41.7593 42.8383 41.7984 42.4197 41.7697 42.003C41.8552 41.8928 41.9129 41.7638 41.9381 41.6267C41.9633 41.4896 41.9551 41.3485 41.9144 41.2152C42.6459 36.532 44.0368 31.9757 46.0458 27.6816C49.9083 19.508 55.9899 12.5815 63.5988 7.69025C68.0204 4.82604 72.8871 2.71462 78.0008 1.44204C83.1055 0.203587 88.3688 -0.254543 93.611 0.0832624C93.7919 0.0832624 93.9728 0.0832624 94.1537 0.0832624C94.3069 0.186374 94.4806 0.25525 94.6629 0.285186C94.8452 0.315121 95.0319 0.305411 95.2101 0.256722C95.5156 0.350958 95.8391 0.372004 96.1543 0.318155C96.5941 0.519707 97.0808 0.597193 97.5616 0.542212C97.7584 0.64122 97.9842 0.666846 98.1983 0.614487C99.3265 0.936475 100.476 1.178 101.639 1.33724L101.957 1.38783C102.06 1.48384 102.184 1.55445 102.319 1.59399C102.454 1.63352 102.596 1.64089 102.735 1.6155C102.804 1.66276 102.882 1.6952 102.964 1.71075C103.046 1.72631 103.131 1.72463 103.212 1.70584C103.306 1.90098 103.505 1.89015 103.679 1.94074C106.072 2.64001 108.409 3.51574 110.672 4.56072C112.343 5.33045 113.899 6.3134 115.552 7.11204C116.028 7.54459 116.572 7.89618 117.162 8.15281L117.184 8.20701H117.245C117.509 8.53884 117.862 8.78939 118.262 8.92976V8.99482H118.327C118.598 9.3224 118.951 9.57189 119.351 9.71757V9.73563C119.567 10.0473 119.874 10.2846 120.23 10.415C120.277 10.5216 120.348 10.6154 120.439 10.6884C120.53 10.7614 120.637 10.8114 120.751 10.8342C120.751 10.9824 120.874 11.0185 120.997 11.0294C121.198 11.354 121.495 11.608 121.847 11.7557Z" fill="#AE0000"/>
<path d="M118.233 111.835C118.244 112.403 118.031 112.952 117.641 113.365C117.251 113.778 116.714 114.021 116.146 114.043C115.545 114.072 114.945 114.068 114.337 114.043C113.975 114.043 113.827 114.173 113.841 114.545C113.863 115.066 113.841 115.586 113.841 116.11C113.812 117.476 112.886 118.437 111.62 118.426C110.354 118.416 109.478 117.462 109.449 116.143C109.449 115.619 109.424 115.098 109.449 114.578C109.475 114.162 109.312 114.025 108.907 114.043C108.36 114.068 107.821 114.043 107.264 114.043C106.977 114.047 106.691 113.994 106.425 113.886C106.158 113.779 105.915 113.62 105.711 113.418C105.506 113.216 105.344 112.976 105.233 112.711C105.122 112.446 105.065 112.162 105.065 111.875C105.064 111.295 105.291 110.739 105.697 110.325C106.103 109.911 106.655 109.673 107.235 109.663C107.959 109.62 108.91 109.996 109.323 109.493C109.684 109.063 109.428 108.149 109.457 107.451C109.462 106.871 109.698 106.316 110.113 105.909C110.528 105.502 111.087 105.276 111.669 105.281C112.25 105.287 112.806 105.522 113.213 105.937C113.621 106.351 113.846 106.91 113.841 107.491C113.859 108.062 113.841 108.637 113.841 109.211C113.841 109.547 113.961 109.677 114.301 109.67C114.926 109.67 115.552 109.645 116.178 109.67C116.733 109.7 117.255 109.941 117.638 110.344C118.02 110.746 118.233 111.28 118.233 111.835Z" fill="#AE0000"/>
<path d="M33.2789 28.4835C33.5607 28.5202 33.8451 28.5335 34.1291 28.5232C35.464 28.3859 36.4408 28.8846 37.0232 30.1025V31.3456C36.9282 31.4209 36.852 31.5173 36.8005 31.627C36.7491 31.7367 36.7238 31.8569 36.7266 31.978L36.1007 32.5887C35.9792 32.5863 35.8587 32.6122 35.7488 32.6642C35.639 32.7163 35.5427 32.7931 35.4676 32.8887L33.5973 32.9537C32.6097 32.8598 32.6097 32.8598 32.7001 33.8463L32.635 35.7182C32.5398 35.7934 32.4634 35.8897 32.4119 35.9995C32.3604 36.1092 32.3352 36.2295 32.3384 36.3507C32.1285 36.5566 31.9187 36.7662 31.7125 36.9758C31.5912 36.9727 31.4708 36.9979 31.3609 37.0493C31.251 37.1008 31.1546 37.1771 31.0794 37.2722H29.8349C28.5687 36.6723 28.1129 35.6496 28.254 34.298C28.2623 34.0396 28.249 33.7809 28.2142 33.5247C28.3698 33.0404 28.1744 32.8814 27.6896 32.8959C26.9408 32.9176 26.1955 32.8959 25.4467 32.8959C25.3722 32.7999 25.276 32.723 25.1659 32.6715C25.0558 32.62 24.9351 32.5953 24.8136 32.5996C24.6074 32.39 24.3976 32.1804 24.1877 31.9744C24.1913 31.8528 24.1659 31.732 24.1137 31.6221C24.0615 31.5122 23.984 31.4162 23.8875 31.342V30.0988C23.9829 30.0239 24.0594 29.9276 24.1109 29.8178C24.1624 29.708 24.1875 29.5877 24.1841 29.4664L24.8136 28.8376C24.9349 28.8407 25.0553 28.8156 25.1652 28.7641C25.275 28.7127 25.3714 28.6364 25.4467 28.5413C26.2209 28.5413 26.9987 28.516 27.7728 28.5413C28.1346 28.5413 28.2757 28.4148 28.2685 28.0462C28.2685 27.2729 28.2685 26.4959 28.2685 25.7226C28.3639 25.6478 28.4402 25.5515 28.4911 25.4416C28.5421 25.3316 28.5662 25.2112 28.5615 25.0902L29.191 24.4614C29.3125 24.4656 29.4332 24.441 29.5433 24.3895C29.6534 24.3379 29.7496 24.261 29.8241 24.165H31.0685C31.143 24.2612 31.2392 24.3385 31.3492 24.3907C31.4592 24.4428 31.5799 24.4682 31.7016 24.465L32.3275 25.0902C32.3241 25.2114 32.3492 25.3317 32.4007 25.4415C32.4522 25.5514 32.5287 25.6476 32.6241 25.7226C32.6241 26.4706 32.6603 27.2187 32.6241 27.9631C32.6314 28.4473 32.7978 28.6389 33.2789 28.4835Z" fill="#AE0000"/>
</g>
<defs>
<clipPath id="clip0_912_217">
<rect width="138" height="148.136" fill="white"/>
</clipPath>
</defs>
</svg>
