<svg width="113" height="151" viewBox="0 0 113 151" fill="none" xmlns="http://www.w3.org/2000/svg">
<path d="M28.4561 123.98V147.782" stroke="#AE0000" stroke-width="5" stroke-miterlimit="10" stroke-linecap="round"/>
<path d="M64.6929 124.213V148" stroke="#AE0000" stroke-width="5" stroke-miterlimit="10" stroke-linecap="round"/>
<path d="M88.1518 15.7969C86.7397 13.5105 84.5575 11.8393 82.0225 11.103C79.4876 10.3668 76.7776 10.6169 74.4107 11.8058L74.1416 11.2377C72.4777 8.70404 70.2347 6.62881 67.6093 5.19395C64.9839 3.75909 62.0562 3.00842 59.083 3.00775C56.7509 2.937 54.429 3.35133 52.2564 4.22587C50.0838 5.10042 48.1055 6.41716 46.4399 8.09712C44.7743 9.77708 43.4559 11.7857 42.5638 14.0023C41.6716 16.219 41.224 18.5982 41.248 20.9971V21.6817C39.6649 21.6252 38.0869 21.8971 36.6082 22.4811C35.1294 23.0651 33.7802 23.9493 32.6409 25.0809C31.5015 26.2125 30.5954 27.5684 29.9766 29.0678C29.3577 30.5672 29.0388 32.1793 29.0388 33.8081C29.0388 35.4369 29.3577 37.049 29.9766 38.5484C30.5954 40.0477 31.5015 41.4036 32.6409 42.5352C33.7802 43.6669 35.1294 44.551 36.6082 45.135C38.0869 45.719 39.6649 45.9909 41.248 45.9345" stroke="#AE0000" stroke-width="5" stroke-linecap="round" stroke-linejoin="round"/>
<path d="M88.1519 16.3209C90.5187 15.3212 93.0885 14.9361 95.6343 15.1998C98.1801 15.4634 100.624 16.3677 102.749 17.8326C104.874 19.2975 106.616 21.278 107.821 23.5993C109.025 25.9205 109.655 28.511 109.655 31.142C109.655 33.773 109.025 36.3635 107.821 38.6848C106.616 41.006 104.874 42.9865 102.749 44.4514C100.624 45.9164 98.1801 46.8206 95.6343 47.0842C93.0885 47.3479 90.5187 46.9629 88.1519 45.9632" stroke="#AE0000" stroke-width="5" stroke-miterlimit="10" stroke-linecap="round"/>
<path d="M57.4257 36.5527L49.5635 61.4464H64.537L49.5635 93.128L86.7919 54.979L76.6915 54.3381L81.0122 36.5527" stroke="#AE0000" stroke-width="5" stroke-linecap="round" stroke-linejoin="round"/>
<path d="M81.8478 72.459V92.2836C81.8547 98.678 80.198 104.958 77.0496 110.472C73.9011 115.987 69.3755 120.535 63.9419 123.645C58.8988 126.558 53.1049 129.034 46.9426 129.034H46.2343C39.7463 129.034 33.669 126.369 28.4701 123.208C23.2417 120.033 18.9093 115.51 15.9008 110.087C12.8922 104.664 11.3116 98.5272 11.315 92.2836V72.459C11.3109 66.5784 12.7133 60.7871 15.3985 55.5951C18.0838 50.4031 21.9695 45.9698 26.7135 42.6855" stroke="#AE0000" stroke-width="5" stroke-miterlimit="10" stroke-linecap="round"/>
<path d="M81.8478 78.8531C81.8478 78.8531 100.717 74.9348 81.5928 96.6822" stroke="#AE0000" stroke-width="5" stroke-miterlimit="10" stroke-linecap="round"/>
<path d="M11.3008 78.8531C11.3008 78.8531 -7.55421 74.9348 11.57 96.6822" stroke="#AE0000" stroke-width="5" stroke-miterlimit="10" stroke-linecap="round"/>
</svg>
