<svg width="27" height="27" viewBox="0 0 27 27" fill="none" xmlns="http://www.w3.org/2000/svg">
<path d="M13.4999 23.1688C13.4474 23.1688 13.3955 23.1574 13.3478 23.1355C13.3001 23.1136 13.2576 23.0816 13.2234 23.0418C13.2132 23.0301 12.185 21.8326 10.9043 20.0941C8.42832 16.7373 5.47656 12.0444 5.47656 8.75296C5.47564 7.05128 6.01605 5.39342 7.01962 4.01917C8.02319 2.64492 9.43789 1.62554 11.0591 1.10845C12.6803 0.591365 14.424 0.603392 16.0379 1.14279C17.6518 1.68219 19.0523 2.721 20.0369 4.10896C20.0928 4.18797 20.115 4.28596 20.0987 4.38138C20.0824 4.4768 20.0289 4.56183 19.9498 4.61776C19.8708 4.67369 19.7728 4.69595 19.6774 4.67963C19.582 4.66331 19.497 4.60975 19.441 4.53074C18.546 3.26929 17.2729 2.32524 15.8059 1.83512C14.3388 1.34499 12.7539 1.3342 11.2804 1.8043C9.8068 2.27441 8.52096 3.20103 7.60881 4.45018C6.69666 5.69932 6.20547 7.20622 6.20629 8.75296C6.20629 11.1662 8.08316 15.0403 11.4914 19.6624C12.3627 20.8449 13.1139 21.7724 13.4981 22.238C13.8841 21.7724 14.635 20.8453 15.5067 19.6628C17.4335 17.05 19.8785 13.3057 20.5922 10.2963C20.6019 10.2484 20.6211 10.2028 20.6488 10.1625C20.6764 10.1221 20.7119 10.0877 20.7531 10.0613C20.7943 10.0349 20.8405 10.0171 20.8887 10.0089C20.9369 10.0007 20.9864 10.0023 21.034 10.0136C21.0816 10.0248 21.1265 10.0456 21.1659 10.0746C21.2053 10.1036 21.2385 10.1402 21.2635 10.1823C21.2885 10.2243 21.3048 10.271 21.3114 10.3195C21.318 10.368 21.3147 10.4173 21.3018 10.4645C20.5604 13.594 18.0608 17.4287 16.0956 20.0941C14.8149 21.8326 13.7867 23.0301 13.7765 23.0418C13.7423 23.0816 13.6998 23.1136 13.6521 23.1355C13.6044 23.1574 13.5525 23.1688 13.4999 23.1688Z" fill="#868686"/>
<path d="M21.0926 8.12016C21.0005 8.12043 20.9117 8.08587 20.8441 8.02341C20.7764 7.96095 20.7348 7.87521 20.7277 7.78339C20.6865 7.45347 20.6192 7.12735 20.5263 6.8081C20.5166 6.77506 20.5116 6.74077 20.5117 6.70631C20.5108 6.61568 20.5436 6.52795 20.6038 6.46019C20.664 6.39244 20.7473 6.34951 20.8374 6.33976C20.9275 6.33002 21.018 6.35416 21.0913 6.40748C21.1645 6.4608 21.2154 6.53949 21.2338 6.62823C21.335 6.98228 21.4082 7.34377 21.4527 7.70932C21.4543 7.72398 21.4552 7.73872 21.4553 7.75347C21.4558 7.85017 21.4178 7.94312 21.3498 8.01187C21.2818 8.08063 21.1893 8.11958 21.0926 8.12016Z" fill="#868686"/>
<path d="M13.5006 14.4899C12.3717 14.4899 11.2682 14.1551 10.3296 13.528C9.39098 12.9008 8.65943 12.0094 8.22744 10.9665C7.79544 9.92356 7.68241 8.77596 7.90264 7.6688C8.12287 6.56163 8.66646 5.54464 9.46468 4.74642C10.2629 3.9482 11.2799 3.40461 12.3871 3.18438C13.4942 2.96415 14.6418 3.07718 15.6847 3.50917C16.7277 3.94117 17.6191 4.67272 18.2462 5.61133C18.8734 6.54994 19.2081 7.65344 19.2081 8.78229C19.2064 10.2955 18.6045 11.7462 17.5345 12.8162C16.4645 13.8862 15.0138 14.4881 13.5006 14.4899ZM13.5006 3.8048C12.516 3.8048 11.5536 4.09676 10.735 4.64375C9.91636 5.19074 9.27833 5.96819 8.90158 6.8778C8.52483 7.7874 8.42627 8.7883 8.61838 9.75392C8.81048 10.7195 9.28461 11.6065 9.98081 12.3027C10.677 12.9988 11.564 13.4729 12.5296 13.6649C13.4953 13.8569 14.4962 13.7583 15.4057 13.3815C16.3153 13.0047 17.0927 12.3666 17.6397 11.5479C18.1866 10.7293 18.4785 9.76683 18.4784 8.78229C18.4768 7.46262 17.9518 6.19748 17.0186 5.26436C16.0854 4.33125 14.8202 3.80635 13.5006 3.8048Z" fill="#868686"/>
<path d="M17.8411 12.2594C17.783 12.2595 17.7257 12.2457 17.6741 12.2192C17.6224 12.1926 17.5778 12.1542 17.5441 12.1069C17.0923 11.4669 16.4943 10.944 15.7998 10.5816C15.1053 10.2192 14.3343 10.0277 13.551 10.0232C13.5471 10.0236 13.5432 10.0236 13.5393 10.0232H13.4459C12.6625 10.0277 11.8916 10.2192 11.1971 10.5816C10.5026 10.944 9.90458 11.4669 9.45281 12.1069C9.39618 12.1847 9.31111 12.237 9.21613 12.2524C9.12115 12.2677 9.02394 12.245 8.94566 12.189C8.86738 12.1331 8.81437 12.0485 8.79818 11.9536C8.78198 11.8588 8.8039 11.7614 8.85917 11.6826C9.38161 10.9531 10.0683 10.3567 10.8639 9.94169C11.6594 9.52666 12.5414 9.3046 13.4386 9.29346H13.4499H13.5594C14.4566 9.3046 15.3386 9.52666 16.1341 9.94169C16.9296 10.3567 17.6163 10.9531 18.1388 11.6826C18.1666 11.7216 18.1865 11.7657 18.1973 11.8124C18.2081 11.8591 18.2096 11.9074 18.2017 11.9547C18.1938 12.002 18.1767 12.0472 18.1513 12.0879C18.1259 12.1285 18.0928 12.1637 18.0538 12.1916C17.9918 12.2361 17.9174 12.2599 17.8411 12.2594Z" fill="#868686"/>
<path d="M13.5005 10.0271C13.0554 10.0272 12.6204 9.89526 12.2503 9.64806C11.8802 9.40086 11.5917 9.04946 11.4214 8.63831C11.251 8.22716 11.2064 7.77473 11.2932 7.33822C11.38 6.90172 11.5942 6.50075 11.9089 6.18603C12.2236 5.87131 12.6245 5.65697 13.061 5.57012C13.4975 5.48327 13.9499 5.52781 14.3611 5.6981C14.7723 5.8684 15.1237 6.1568 15.371 6.52684C15.6183 6.89688 15.7502 7.33193 15.7502 7.77698C15.7497 8.3735 15.5125 8.94544 15.0907 9.36728C14.6689 9.78912 14.097 10.0264 13.5005 10.0271ZM13.5005 6.25695C13.1997 6.25688 12.9057 6.346 12.6557 6.51303C12.4056 6.68007 12.2107 6.91751 12.0955 7.19534C11.9804 7.47317 11.9503 7.7789 12.0089 8.07386C12.0676 8.36883 12.2124 8.63977 12.425 8.85242C12.6377 9.06507 12.9086 9.20988 13.2036 9.26854C13.4986 9.32719 13.8043 9.29705 14.0821 9.18193C14.3599 9.06681 14.5974 8.87188 14.7644 8.6218C14.9315 8.37171 15.0206 8.07771 15.0205 7.77698C15.02 7.37399 14.8597 6.98764 14.5748 6.70269C14.2898 6.41773 13.9035 6.25743 13.5005 6.25695Z" fill="#868686"/>
<path d="M13.4992 26.2702C9.38166 26.2702 6.15625 24.7476 6.15625 22.804C6.15625 21.277 8.11266 19.9865 11.1403 19.5166C11.188 19.5083 11.2369 19.5096 11.2841 19.5205C11.3314 19.5313 11.3759 19.5515 11.4153 19.5797C11.4546 19.608 11.488 19.6438 11.5133 19.685C11.5387 19.7263 11.5556 19.7722 11.563 19.8201C11.5705 19.8679 11.5683 19.9168 11.5566 19.9638C11.545 20.0109 11.5241 20.0551 11.4952 20.0939C11.4663 20.1328 11.4299 20.1655 11.3882 20.1902C11.3465 20.2148 11.3003 20.2309 11.2523 20.2375C8.68294 20.6371 6.88598 21.6923 6.88598 22.804C6.88598 24.1255 9.54329 25.5405 13.4992 25.5405C17.455 25.5405 20.1123 24.1255 20.1123 22.804C20.1123 21.6923 18.3168 20.6371 15.746 20.2375C15.698 20.2309 15.6518 20.2148 15.6101 20.1902C15.5684 20.1655 15.5321 20.1328 15.5031 20.0939C15.4742 20.0551 15.4533 20.0109 15.4417 19.9638C15.43 19.9168 15.4278 19.8679 15.4353 19.8201C15.4427 19.7722 15.4596 19.7263 15.485 19.685C15.5103 19.6438 15.5437 19.608 15.583 19.5797C15.6224 19.5515 15.667 19.5313 15.7142 19.5205C15.7614 19.5096 15.8103 19.5083 15.858 19.5166C18.8864 19.9865 20.8421 21.277 20.8421 22.804C20.8421 24.7476 17.6167 26.2702 13.4992 26.2702Z" fill="#868686"/>
</svg>
